<?xml version="1.0" encoding="utf-8"?>
<!-- Generator: Adobe Illustrator 28.2.0, SVG Export Plug-In . SVG Version: 6.00 Build 0)  -->
<svg version="1.1" id="Layer_1" xmlns="http://www.w3.org/2000/svg" xmlns:xlink="http://www.w3.org/1999/xlink" x="0px" y="0px"
	 viewBox="0 0 450 100" style="enable-background:new 0 0 450 100;" xml:space="preserve">
<style type="text/css">
	.st0{fill:#E5F6F6;}
	.st1{fill:#CCEDED;}
	.st2{fill:none;}
	.st3{fill:#66C8CA;}
	.st4{fill:#99DADB;}
	.st5{fill:#4CBFC1;}
	.st6{fill:#00A3A6;}
	.st7{fill:#80D1D2;}
	.st8{fill:#B2E3E4;}
	.st9{fill:none;stroke:#FFFFFF;stroke-width:2.24;stroke-miterlimit:10;}
	.st10{font-family:'OpenSans-Bold';}
	.st11{font-size:6.27px;}
	.st12{fill:none;stroke:#00A3A6;stroke-width:1.79;stroke-miterlimit:10;}
	.st13{clip-path:url(#SVGID_00000014601885065890608270000001528962123675319711_);}
	.st14{fill:#FDD0B3;}
	.st15{fill:none;stroke:#FFFFFF;stroke-width:2.25;stroke-miterlimit:10;}
	.st16{fill:#FFFFFF;}
	.st17{fill:#FB924D;}
	.st18{fill:none;stroke:#99DADB;stroke-width:0.23;stroke-miterlimit:10;}
	.st19{opacity:0.5;fill:#FFFFFF;enable-background:new    ;}
	.st20{clip-path:url(#SVGID_00000145030990058290403530000006737490108015293854_);}
	.st21{fill:#902082;}
	.st22{fill:#B163A7;}
	.st23{font-family:'OpenSans-Extrabold';}
	.st24{font-size:8.4856px;}
	.st25{opacity:0.8;fill:#F4E9F2;}
	.st26{fill:#D3A6CD;}
	.st27{opacity:0.4;fill:#D3A6CD;}
	.st28{fill:#F5D3BC;}
	.st29{fill:#F4C9A8;}
	.st30{fill:#BCBCBD;}
	.st31{fill:#F1C09F;}
	.st32{clip-path:url(#XMLID_00000153695309438832266880000017922078984095449473_);fill:#FFFFFF;}
	.st33{clip-path:url(#XMLID_00000153695309438832266880000017922078984095449473_);fill:#BCBCBD;}
	.st34{fill:#003C57;}
	.st35{clip-path:url(#XMLID_00000023963108524320095320000003668091576783958202_);fill:#FFFFFF;}
	.st36{opacity:0.1;clip-path:url(#XMLID_00000085233523253661304630000017937363856973788332_);fill:#222222;}
	.st37{fill:#33B5B8;}
	.st38{opacity:0.1;clip-path:url(#XMLID_00000016771551137837122670000001476347702449864089_);fill:#222222;}
	.st39{opacity:0.1;fill:#222222;}
	.st40{fill:#886F5D;}
	.st41{fill:#222222;}
	.st42{fill:#553117;}
	.st43{opacity:0.4;fill:#222222;}
	.st44{fill:#9E7D76;}
	.st45{clip-path:url(#XMLID_00000162335662348288962810000017653743118519243174_);}
	.st46{opacity:0.1;fill:#4C7689;}
</style>
<rect id="_04_BG" x="0.1" y="0" class="st0" width="450.1" height="100"/>
<rect id="_04_floor" x="0.1" y="67.3" class="st1" width="450.1" height="32.7"/>
<g id="Skyline">
	<polyline class="st2" points="0.1,100 93.9,100 450.1,100 450.1,87.3 450.1,67.3 450.1,0 0.1,0 	"/>
</g>
<g id="Beach-umbrella-chair">
	<g>
		<g>
			
				<rect x="145.191" y="34.621" transform="matrix(0.9419 -0.3359 0.3359 0.9419 -10.9878 52.3198)" class="st3" width="1.1" height="46.6"/>
			<polygon class="st4" points="115.8,46.8 136,32.7 128.1,42.6 			"/>
			<polygon class="st4" points="137.4,32.2 137.4,32.4 147.1,35.9 162.1,30.3 			"/>
			<polygon class="st1" points="128.2,42.6 147.1,35.8 137.4,32.3 135.9,32.8 			"/>
			<path class="st5" d="M135.6,32.9l-0.2-0.6c-0.1-0.5,0.1-0.8,0.4-1l0.8-0.3c0.3-0.1,0.8-0.1,1,0.4l0.2,0.7L135.6,32.9L135.6,32.9z
				"/>
			<path class="st5" d="M115.8,46.8c0,0.2,0.5,1.7,1.5,2.4s2,0.5,2.2,0.5c2.6-0.9,5.2-1.8,7.8-2.8c0.3-0.2,0.8-0.5,1.2-1.3
				c0.6-1.4-0.2-2.9-0.3-3C124.1,44.1,119.8,45.4,115.8,46.8L115.8,46.8z"/>
			<path class="st4" d="M128.2,42.5c0.1,0.3,0.4,1.4,1.3,2.1c1.2,1,2.8,0.5,2.9,0.5c4.6-1.7,9.3-3.3,13.9-5.1c0.1-0.1,1.1-0.8,1.2-2
				c0.1-1-0.3-2-0.4-2.2C140.9,38,134.4,40.3,128.2,42.5L128.2,42.5z"/>
			<path class="st5" d="M147.1,35.8c0,0.1,0.4,1.6,1.5,2.4c0.9,0.6,1.9,0.4,2.1,0.3c3.6-1.3,7.2-2.6,10.9-3.9c0.2-0.2,0.8-0.7,1-1.5
				c0.4-1.3-0.4-2.7-0.5-2.8C157.2,32.1,152,34.1,147.1,35.8L147.1,35.8z"/>
		</g>
		<g>
			<path class="st6" d="M162.6,75.8l5.7-1.8c0.1,0,0.3,0,0.4,0.2l0.1,0.4c0,0.1,0,0.3-0.2,0.4l-5.7,1.8c-0.1,0-0.3,0-0.4-0.2
				l-0.1-0.4C162.4,76,162.5,75.8,162.6,75.8z"/>
			<rect x="148.7" y="54.2" class="st4" width="15.8" height="0.8"/>
			<path class="st6" d="M168.2,81.1h-0.9c-0.2,0-0.3-0.1-0.3-0.3L163.5,54c0-0.2,0.1-0.3,0.3-0.4h0.6c0.2,0,0.3,0.1,0.4,0.3
				l3.7,26.8C168.5,80.9,168.4,81.1,168.2,81.1L168.2,81.1z"/>
			<path class="st5" d="M150.1,53.8c0.1,5.1,0.2,10.5,0.4,17.5c0.1,1.5,0.1,2.9,0.8,4c5.5-0.2,9.9-0.3,15.4-0.4
				c-0.9-1-1.6-1.9-1.8-2.9c-1-5.1-2.1-16.9-1.8-18C158.9,53.9,154.3,53.9,150.1,53.8L150.1,53.8z"/>
			<path class="st4" d="M152.7,53.8c0,5.1,0.3,10.5,0.7,17.5c0.1,2,0.7,2.8,0.9,3.9c1.5,0,2.1,0.1,3.6-0.1c-0.4-0.6-1.2-2.5-1.3-3.5
				c-0.5-5.5-0.8-16.9-0.7-17.8C154.6,53.9,153.9,53.8,152.7,53.8L152.7,53.8z"/>
			<path class="st6" d="M151.3,74.8l-1.6,3c-0.1,0.1-0.3,0.2-0.4,0.1l-0.4-0.2c-0.1-0.1-0.2-0.3-0.1-0.4l1.6-3
				c0.1-0.1,0.3-0.2,0.4-0.1l0.4,0.2C151.4,74.5,151.4,74.7,151.3,74.8z"/>
			<path class="st4" d="M158.2,53.8c0,5.1,0.5,10.2,0.9,17.2c0.1,2,1.2,3,1.4,4.1c1.5,0,2.1,0.1,3.6-0.1c-0.4-0.6-1.5-1.5-1.8-3.3
				c-0.7-5.5-1.2-17-1.1-17.9C160,53.8,159.4,53.9,158.2,53.8L158.2,53.8z"/>
			<path class="st4" d="M150.4,74.4h16.8c0.2,0,0.3,0.1,0.3,0.3V75c0,0.2-0.1,0.3-0.3,0.3h-16.8c-0.2,0-0.3-0.1-0.3-0.3v-0.4
				C150.1,74.5,150.2,74.4,150.4,74.4z"/>
			<path class="st3" d="M150.9,74.3h15.7c0.1,0,0.3,0.1,0.3,0.3v0.6c0,0.1-0.1,0.3-0.3,0.3h-15.7c-0.1,0-0.3-0.1-0.3-0.3v-0.6
				C150.6,74.4,150.7,74.3,150.9,74.3z"/>
			<rect x="154.1" y="74.3" class="st0" width="3.6" height="1.1"/>
			<rect x="160.4" y="74.2" class="st0" width="3.6" height="1.1"/>
			<path class="st6" d="M149.9,81.4l-1-0.1c-0.1,0-0.3-0.1-0.3-0.3l-0.5-27c0-0.2,0.1-0.3,0.3-0.3h0.7c0.2,0,0.3,0.1,0.3,0.3
				l0.9,27.1C150.2,81.3,150.1,81.4,149.9,81.4L149.9,81.4z"/>
		</g>
	</g>
</g>
<g>
	<path class="st6" d="M189.6,75.8l5.7-1.8c0.1,0,0.3,0,0.4,0.2l0.1,0.4c0,0.1,0,0.3-0.2,0.4l-5.7,1.8c-0.1,0-0.3,0-0.4-0.2l-0.1-0.4
		C189.3,76,189.4,75.8,189.6,75.8z"/>
	<rect x="175.7" y="54.2" class="st4" width="15.8" height="0.8"/>
	<path class="st6" d="M195.1,81.1h-0.9c-0.2,0-0.3-0.1-0.3-0.3L190.5,54c0-0.2,0.1-0.3,0.3-0.4h0.6c0.2,0,0.3,0.1,0.4,0.3l3.7,26.8
		C195.5,80.9,195.3,81.1,195.1,81.1L195.1,81.1z"/>
	<path class="st5" d="M177.1,53.8c0.1,5.1,0.2,10.5,0.4,17.5c0.1,1.5,0.1,2.9,0.8,4c5.5-0.2,9.9-0.3,15.4-0.4
		c-0.9-1-1.6-1.9-1.8-2.9c-1-5.1-2.1-16.9-1.8-18C185.9,53.9,181.3,53.9,177.1,53.8L177.1,53.8z"/>
	<path class="st4" d="M179.6,53.8c0,5.1,0.3,10.5,0.7,17.5c0.1,2,0.7,2.8,0.9,3.9c1.5,0,2.1,0.1,3.6-0.1c-0.4-0.6-1.2-2.5-1.3-3.5
		c-0.5-5.5-0.8-16.9-0.7-17.8C181.6,53.9,180.8,53.8,179.6,53.8L179.6,53.8z"/>
	<path class="st6" d="M178.3,74.8l-1.6,3c-0.1,0.1-0.3,0.2-0.4,0.1l-0.4-0.2c-0.1-0.1-0.2-0.3-0.1-0.4l1.6-3
		c0.1-0.1,0.3-0.2,0.4-0.1l0.4,0.2C178.3,74.5,178.4,74.7,178.3,74.8z"/>
	<path class="st4" d="M185.1,53.8c0,5.1,0.5,10.2,0.9,17.2c0.1,2,1.2,3,1.4,4.1c1.5,0,2.1,0.1,3.6-0.1c-0.4-0.6-1.5-1.5-1.8-3.3
		c-0.7-5.5-1.2-17-1.1-17.9C187,53.8,186.3,53.9,185.1,53.8L185.1,53.8z"/>
	<path class="st4" d="M177.3,74.4h16.8c0.2,0,0.3,0.1,0.3,0.3V75c0,0.2-0.1,0.3-0.3,0.3h-16.8c-0.2,0-0.3-0.1-0.3-0.3v-0.4
		C177,74.5,177.1,74.4,177.3,74.4z"/>
	<path class="st3" d="M177.9,74.3h15.7c0.1,0,0.3,0.1,0.3,0.3v0.6c0,0.1-0.1,0.3-0.3,0.3h-15.7c-0.1,0-0.3-0.1-0.3-0.3v-0.6
		C177.6,74.4,177.7,74.3,177.9,74.3z"/>
	<rect x="181.1" y="74.3" class="st0" width="3.6" height="1.1"/>
	<rect x="187.4" y="74.2" class="st0" width="3.6" height="1.1"/>
	<path class="st6" d="M176.9,81.4l-1-0.1c-0.1,0-0.3-0.1-0.3-0.3l-0.5-27c0-0.2,0.1-0.3,0.3-0.3h0.7c0.2,0,0.3,0.1,0.3,0.3l0.9,27.1
		C177.2,81.3,177,81.4,176.9,81.4L176.9,81.4z"/>
</g>
<g>
	<g>
		<path class="st4" d="M193.8,33.5c0.2-0.5-3.6-2.3-7.3-3.2c-3.2-0.8-7.6-2-10.4-0.2c-1.2,0.8-1.8,1.9-2.1,2.7
			c1.7-0.1,4.3-0.3,7.4-0.2C188.9,32.8,193.5,34.1,193.8,33.5L193.8,33.5z"/>
		<path class="st4" d="M192.1,33.2c1.3-0.7,0.4-6.3-2.6-9.9c-0.9-1.1-2.9-3.5-5.1-3c-1.8,0.4-2.8,2.3-3,2.8c0.9-0.2,1.8-0.5,2.7-0.7
			c0.2,1,0.5,2.4,1.2,3.9C187,30.2,190.8,33.9,192.1,33.2L192.1,33.2z"/>
		<path class="st4" d="M191,30.5c-1.6-0.4-2.6-4.9-1-8c0.2-0.5,1.6-3.2,4.4-3.4c1.6-0.1,2.9,0.7,3.4,1c-0.8,0.5-1.7,1.3-2.2,2.6
			c-0.5,1.3-0.1,2.1-0.3,3.3C194.8,28.4,192.3,30.8,191,30.5L191,30.5z"/>
		<path class="st4" d="M188.7,31.6c-1.8,0.1-2.9,1.2-4.1,2.3c-1.2,1.2-3.4,3.2-4.1,6.7c-0.8,4.3,1.3,7.5,1.7,8.2
			c1.1-2.1,2.4-4.4,3.9-6.7c2.3-3.5,4.7-6.3,6.9-8.5C192.7,33.1,191,31.4,188.7,31.6z"/>
		<path class="st4" d="M191.5,34.2c1.5,1,3.3,2.5,4.9,4.7c1.4,2,2.1,3.8,3.4,7.3c0.4,0.9,1.2,3.4,2.1,6.8c0.3,1.2,0.6,2.5,1.6,7.5
			c0.4,2,0.9,4.8,1.5,8.2c-0.4,0.2-1.3,0.6-2.6,0.5c-1-0.1-1.7-0.5-2.1-0.7c-0.2-5.3-0.6-9.7-1-12.9c-1.1-8.8-2.2-11.7-2.7-12.9
			C195.1,38.8,193,35.9,191.5,34.2L191.5,34.2z"/>
		<path class="st4" d="M192.5,33.9c-0.1-0.5,2-1.8,4-2.3c1.3-0.4,3.6-1,5.7,0.1c2.3,1.2,3.6,4.2,3.3,7.5c-1.1-1.7-2.6-3.6-5-4.6
			C196.6,33,192.7,34.6,192.5,33.9L192.5,33.9z"/>
		<path class="st4" d="M191.6,33.9c-0.4,0.9,1.6,2.7,2.7,3.5c1.6,1.2,2.8,1.1,4.4,1.8c1.4,0.6,3.1,1.8,4.9,4.2
			c0.2-0.7,1.1-4.2-0.8-7.1C199.9,31.8,192.3,32.3,191.6,33.9L191.6,33.9z"/>
		<path class="st4" d="M191.3,32c0.8-2.6,3.1-4.6,5.8-4.9c2.5-0.3,5.1,0.8,6.6,3c-3.4-1.2-5.1-0.8-6.1-0.1c-1.6,1-1.7,3-3.2,3.3
			C193.2,33.5,192.1,32.6,191.3,32L191.3,32z"/>
	</g>
	<g>
		<path class="st4" d="M215.9,23.9c1.9-0.6,2.6-5.9,0.4-9.5c-0.3-0.5-2.2-3.6-5.5-3.6c-1.9,0-3.3,1.1-3.9,1.5
			c0.9,0.5,2.1,1.4,2.8,2.8c0.7,1.5,0.3,2.4,0.7,3.9C211.3,21.9,214.4,24.4,215.9,23.9L215.9,23.9z"/>
		<path class="st4" d="M213,27.8c-0.2-0.4,3.9-3,8.3-4.6c3.7-1.3,8.6-3.1,12.2-1.3c1.6,0.8,2.3,2.1,2.7,2.9
			c-0.9-0.3-2.3-0.7-4.1-0.8c-2.2-0.1-3.9,0.2-4.6,0.4C220.2,26,213.3,28.3,213,27.8L213,27.8z"/>
		<path class="st4" d="M215,27.2c-1.6-0.7-1.1-7.3,2-11.9c1-1.4,3-4.4,5.7-4.1c2.1,0.2,3.5,2.4,3.8,3c-1.1-0.2-2.1-0.4-3.2-0.5
			c-0.1,1.2-0.3,2.9-0.9,4.7C220.6,23.2,216.5,27.9,215,27.2L215,27.2z"/>
		<path class="st4" d="M218.8,24.9c2.1,0,3.5,1.1,5.1,2.3c1.6,1.2,4.3,3.4,5.4,7.5c1.3,4.9-0.8,9-1.2,9.8c-0.4-2-1.6-6.5-5.3-10.6
			c-3.3-3.8-7.1-5.4-9-6.1C214.2,27.1,216,25,218.8,24.9L218.8,24.9z"/>
		<path class="st4" d="M215.8,28.3c-1.7,1.4-3.6,3.3-5.3,6.1c-1.5,2.5-2.1,4.6-3.2,8.9c-0.3,1.1-1.1,4.1-1.8,8.2
			c-0.2,1.4-0.5,3-1.1,8.9c-0.2,2.5-0.6,5.8-0.9,9.7c0.5,0.2,1.6,0.6,3.1,0.3c1.1-0.2,1.9-0.7,2.3-1c-0.3-6.2-0.3-11.4-0.1-15.3
			c0.3-10.5,1.3-13.9,1.8-15.4C212,34.1,214.1,30.5,215.8,28.3L215.8,28.3z"/>
		<path class="st4" d="M214.6,28.1c0.1-0.6-2.5-1.9-4.9-2.3c-1.6-0.3-4.4-0.8-6.6,0.7c-2.6,1.7-3.8,5.3-3.1,9.1
			c1.1-2.1,2.7-4.5,5.4-5.9C209.7,27.5,214.4,28.9,214.6,28.1L214.6,28.1z"/>
		<path class="st4" d="M215.6,28c0.6,1.1-1.6,3.4-2.9,4.5c-1.8,1.5-3.1,1.6-5,2.6c-1.5,0.8-3.5,2.4-5.2,5.5
			c-0.3-0.8-1.8-4.8,0.2-8.4C205.7,26.4,214.6,26.2,215.6,28L215.6,28z"/>
		<path class="st4" d="M215.7,25.7c-1.2-3-4.1-5.1-7.3-5.2c-3-0.1-5.9,1.5-7.4,4.2c3.8-1.8,5.9-1.4,7.1-0.8c2,1.1,2.3,3.3,4.1,3.6
			C213.6,27.7,214.9,26.5,215.7,25.7L215.7,25.7z"/>
	</g>
	<path class="st4" d="M212.2,28.6c-0.3,1,2.4,1.5,4,4.3c2.5,4.1,0.3,9.1,1.2,9.3c0.6,0.2,1.9-2,2.6-4.3c0.2-0.9,2-7.2-1.3-9.7
		C216.5,26.7,212.6,27.5,212.2,28.6L212.2,28.6z"/>
</g>
<g>
	<path class="st6" d="M226.7,75.8l5.7-1.8c0.1,0,0.3,0,0.4,0.2l0.1,0.4c0,0.1,0,0.3-0.2,0.4l-5.7,1.8c-0.1,0-0.3,0-0.4-0.2l-0.1-0.4
		C226.4,76,226.5,75.8,226.7,75.8z"/>
	<rect x="212.8" y="54.2" class="st4" width="15.8" height="0.8"/>
	<path class="st6" d="M232.2,81.1h-0.9c-0.2,0-0.3-0.1-0.3-0.3L227.5,54c0-0.2,0.1-0.3,0.3-0.4h0.6c0.2,0,0.3,0.1,0.4,0.3l3.7,26.8
		C232.6,80.9,232.4,81.1,232.2,81.1L232.2,81.1z"/>
	<path class="st5" d="M214.2,53.8c0.1,5.1,0.2,10.5,0.4,17.5c0.1,1.5,0.1,2.9,0.8,4c5.5-0.2,9.9-0.3,15.4-0.4
		c-0.9-1-1.6-1.9-1.8-2.9c-1-5.1-2.1-16.9-1.8-18C223,53.9,218.4,53.9,214.2,53.8L214.2,53.8z"/>
	<path class="st4" d="M216.7,53.8c0,5.1,0.3,10.5,0.7,17.5c0.1,2,0.7,2.8,0.9,3.9c1.5,0,2.1,0.1,3.6-0.1c-0.4-0.6-1.2-2.5-1.3-3.5
		c-0.5-5.5-0.8-16.9-0.7-17.8C218.7,53.9,217.9,53.8,216.7,53.8L216.7,53.8z"/>
	<path class="st6" d="M215.4,74.8l-1.6,3c-0.1,0.1-0.3,0.2-0.4,0.1l-0.4-0.2c-0.1-0.1-0.2-0.3-0.1-0.4l1.6-3
		c0.1-0.1,0.3-0.2,0.4-0.1l0.4,0.2C215.4,74.5,215.5,74.7,215.4,74.8z"/>
	<path class="st4" d="M222.2,53.8c0,5.1,0.5,10.2,0.9,17.2c0.1,2,1.2,3,1.4,4.1c1.5,0,2.1,0.1,3.6-0.1c-0.4-0.6-1.5-1.5-1.8-3.3
		c-0.7-5.5-1.2-17-1.1-17.9C224.1,53.8,223.4,53.9,222.2,53.8L222.2,53.8z"/>
	<path class="st4" d="M214.4,74.4h16.8c0.2,0,0.3,0.1,0.3,0.3V75c0,0.2-0.1,0.3-0.3,0.3h-16.8c-0.2,0-0.3-0.1-0.3-0.3v-0.4
		C214.1,74.5,214.2,74.4,214.4,74.4z"/>
	<path class="st3" d="M214.9,74.3h15.7c0.1,0,0.3,0.1,0.3,0.3v0.6c0,0.1-0.1,0.3-0.3,0.3h-15.7c-0.1,0-0.3-0.1-0.3-0.3v-0.6
		C214.7,74.4,214.8,74.3,214.9,74.3z"/>
	<rect x="218.2" y="74.3" class="st0" width="3.6" height="1.1"/>
	<rect x="224.5" y="74.2" class="st0" width="3.6" height="1.1"/>
	<path class="st6" d="M214,81.4l-1-0.1c-0.1,0-0.3-0.1-0.3-0.3l-0.5-27c0-0.2,0.1-0.3,0.3-0.3h0.7c0.2,0,0.3,0.1,0.3,0.3l0.9,27.1
		C214.3,81.3,214.1,81.4,214,81.4L214,81.4z"/>
</g>
<g>
	<rect x="247.2" y="31.7" class="st7" width="94.1" height="39.4"/>
	<g>
		<g>
			<g>
				<g>
					<rect x="270.5" y="44.2" class="st8" width="14.3" height="26.9"/>
					<path class="st9" d="M284.9,71.1c0-9.4,0-17.5,0-26.9h-14.3v26.9"/>
				</g>
				<g>
					<polygon class="st8" points="256.2,71.1 270.5,71.1 270.5,44.2 256.2,44.2 					"/>
					<path class="st9" d="M270.5,71.1c0-9.4,0-17.5,0-26.9h-14.3v26.9"/>
				</g>
			</g>
			<rect x="266" y="55.9" class="st6" width="1.8" height="5.4"/>
			<rect x="273.2" y="55.9" class="st6" width="1.8" height="5.4"/>
		</g>
		<g>
			<polygon class="st8" points="285.1,71.1 331.9,71.1 331.9,44.2 285.2,44.2 			"/>
			<path class="st9" d="M332.3,71.1c0-9.4,0-17.5,0-26.9h-47.2v26.9"/>
		</g>
	</g>
	<text transform="matrix(1 0 0 1 292.88 60.78)" class="st6 st10 st11">GIFT SHOP</text>
	<line class="st12" x1="246.3" y1="31.4" x2="342.2" y2="31.4"/>
</g>
<circle class="st4" cx="165.6" cy="15.3" r="10.1"/>
<g>
	<path class="st6" d="M152.5,15.9c0,0,1.9,0.4,2.2,1.3h0.1c0.2-0.9,2-1.4,2-1.4s-1.5,0.9-2,1.9h-0.1
		C153.9,16.5,152.5,15.8,152.5,15.9L152.5,15.9z"/>
	<path class="st6" d="M155.2,21.5c0,0,2.9-0.3,3.3,1c0,0,0.1,0.1,0.1,0c0.3-1.2,3.1-1,3.1-1s-2.4,0.2-3,1.7h-0.1
		C157.5,21.6,155.2,21.5,155.2,21.5L155.2,21.5z"/>
	<path class="st6" d="M147.8,19.1c0,0,3-2.1,3.4-0.5c0,0,0.1,0.1,0.1,0c0.4-1.4,3,0.4,3,0.4s-2.5-1.3-3,0.4c0,0-0.1,0-0.2,0
		C150,17.4,147.8,19.1,147.8,19.1L147.8,19.1z"/>
</g>
<g>
	<rect x="335.4" y="21.6" class="st5" width="85.6" height="49.6"/>
	<rect x="333.6" y="19.8" class="st6" width="89.3" height="1.8"/>
	<g>
		<g>
			<rect x="346.7" y="35.5" class="st0" width="41.5" height="22.5"/>
			<g>
				<g>
					<defs>
						<rect id="SVGID_1_" x="346.7" y="35.5" width="41.5" height="22.5"/>
					</defs>
					<clipPath id="SVGID_00000147940914468183975000000010243911870357595019_">
						<use xlink:href="#SVGID_1_"  style="overflow:visible;"/>
					</clipPath>
					<g style="clip-path:url(#SVGID_00000147940914468183975000000010243911870357595019_);">
						<g>
							<g>
								<g>
									<path class="st4" d="M372.7,50h9.8c0.3,0,0.5,0.2,0.5,0.5l0,0c0,0.3-0.2,0.5-0.5,0.5h-9.8c-0.3,0-0.5-0.2-0.5-0.5l0,0
										C372.2,50.2,372.4,50,372.7,50z"/>
									<rect x="377.1" y="50.2" class="st4" width="1" height="8.5"/>
									<path class="st14" d="M380.2,60.2h-5.3v-0.3c0-0.1,0-0.2,0.1-0.2l1.7-1.3c0.2-0.2,0.5-0.3,0.9-0.3l0,0
										c0.3,0,0.6,0.1,0.9,0.3l1.7,1.3c0.1,0.1,0.1,0.1,0.1,0.2L380.2,60.2L380.2,60.2z"/>
								</g>
								<g>
									<path class="st4" d="M381.2,54.7h3.7c0.3,0,0.5,0.2,0.5,0.5l0,0c0,0.3-0.2,0.5-0.5,0.5h-3.7c-0.3,0-0.5-0.2-0.5-0.5l0,0
										C380.7,54.9,380.9,54.7,381.2,54.7z"/>
									<path class="st4" d="M385.8,48.3L385.8,48.3c0.3,0,0.5,0.2,0.5,0.5v5.5c0,0.3-0.2,0.5-0.5,0.5l0,0c-0.3,0-0.5-0.2-0.5-0.5
										v-5.5C385.3,48.5,385.6,48.3,385.8,48.3z"/>
									<path class="st4" d="M385.3,55.2V55c0.5,0,0.5-0.3,0.5-0.4h0.2c0,0,0,0.2-0.2,0.4C385.6,55.2,385.5,55.3,385.3,55.2
										L385.3,55.2z"/>
									<path class="st4" d="M380.6,60.4C380.6,60.4,380.5,60.4,380.6,60.4c-0.1,0-0.2-0.1-0.2-0.2l1.3-4.7c0-0.1,0.1-0.2,0.2-0.1
										c0.1,0,0.1,0.1,0.1,0.2l-1.3,4.7C380.7,60.3,380.7,60.4,380.6,60.4L380.6,60.4z"/>
									<path class="st4" d="M385.6,60.4c-0.1,0-0.1,0-0.2-0.1l-1.3-4.7c0-0.1,0-0.2,0.1-0.2s0.2,0,0.2,0.1l1.3,4.7
										C385.8,60.2,385.7,60.3,385.6,60.4L385.6,60.4L385.6,60.4z"/>
									<path class="st14" d="M385.2,58.8H381c-0.1,0-0.2-0.1-0.2-0.2s0.1-0.2,0.2-0.2h4.1c0.1,0,0.2,0.1,0.2,0.2
										S385.3,58.8,385.2,58.8z"/>
								</g>
								<g>
									<path class="st4" d="M370.3,54.7h3.7c0.3,0,0.5,0.2,0.5,0.5l0,0c0,0.3-0.2,0.5-0.5,0.5h-3.7c-0.3,0-0.5-0.2-0.5-0.5l0,0
										C369.8,54.9,370,54.7,370.3,54.7z"/>
									<path class="st4" d="M369.3,48.3L369.3,48.3c0.3,0,0.5,0.2,0.5,0.5v5.5c0,0.3-0.2,0.5-0.5,0.5l0,0c-0.3,0-0.5-0.2-0.5-0.5
										v-5.5C368.9,48.5,369.1,48.3,369.3,48.3z"/>
									<path class="st4" d="M369.9,55.2c-0.2,0-0.4-0.1-0.5-0.2c-0.2-0.2-0.2-0.4-0.2-0.4h0.2h-0.1h0.1c0,0,0,0.4,0.5,0.4V55.2
										L369.9,55.2z"/>
									<path class="st4" d="M374.6,60.4c-0.1,0-0.1,0-0.2-0.1l-1.3-4.7c0-0.1,0-0.2,0.1-0.2s0.2,0,0.2,0.1l1.3,4.7
										C374.8,60.2,374.7,60.3,374.6,60.4L374.6,60.4L374.6,60.4z"/>
									<path class="st4" d="M369.6,60.4C369.6,60.4,369.5,60.4,369.6,60.4c-0.1,0-0.2-0.1-0.2-0.2l1.3-4.7c0-0.1,0.1-0.2,0.2-0.1
										c0.1,0,0.1,0.1,0.1,0.2l-1.3,4.7C369.7,60.3,369.7,60.4,369.6,60.4L369.6,60.4z"/>
									<path class="st14" d="M374.1,58.8H370c-0.1,0-0.2-0.1-0.2-0.2s0.1-0.2,0.2-0.2h4.1c0.1,0,0.2,0.1,0.2,0.2
										S374.2,58.8,374.1,58.8z"/>
								</g>
							</g>
							<g>
								<g>
									<path class="st4" d="M352.2,50h9.8c0.3,0,0.5,0.2,0.5,0.5l0,0c0,0.3-0.2,0.5-0.5,0.5h-9.8c-0.3,0-0.5-0.2-0.5-0.5l0,0
										C351.7,50.2,351.9,50,352.2,50z"/>
									<rect x="356.6" y="50.2" class="st4" width="1" height="8.5"/>
									<path class="st14" d="M359.8,60.2h-5.3v-0.3c0-0.1,0-0.2,0.1-0.2l1.7-1.3c0.2-0.2,0.5-0.3,0.9-0.3l0,0
										c0.3,0,0.6,0.1,0.9,0.3l1.7,1.3c0.1,0.1,0.1,0.1,0.1,0.2L359.8,60.2L359.8,60.2z"/>
								</g>
								<g>
									<path class="st4" d="M360.7,54.7h3.7c0.3,0,0.5,0.2,0.5,0.5l0,0c0,0.3-0.2,0.5-0.5,0.5h-3.7c-0.3,0-0.5-0.2-0.5-0.5l0,0
										C360.2,54.9,360.4,54.7,360.7,54.7z"/>
									<path class="st4" d="M365.3,48.3L365.3,48.3c0.3,0,0.5,0.2,0.5,0.5v5.5c0,0.3-0.2,0.5-0.5,0.5l0,0c-0.3,0-0.5-0.2-0.5-0.5
										v-5.5C364.8,48.5,365.1,48.3,365.3,48.3z"/>
									<path class="st4" d="M364.8,55.2V55c0.5,0,0.5-0.3,0.5-0.4h0.2c0,0,0,0.2-0.2,0.4C365.1,55.2,365,55.3,364.8,55.2
										L364.8,55.2z"/>
									<path class="st4" d="M360.1,60.4L360.1,60.4c-0.1,0-0.2-0.1-0.2-0.2l1.3-4.7c0-0.1,0.1-0.2,0.2-0.1c0.1,0,0.1,0.1,0.1,0.2
										l-1.3,4.7C360.3,60.3,360.2,60.4,360.1,60.4L360.1,60.4z"/>
									<path class="st4" d="M365.1,60.4c-0.1,0-0.1,0-0.2-0.1l-1.3-4.7c0-0.1,0-0.2,0.1-0.2s0.2,0,0.2,0.1l1.3,4.7
										C365.3,60.2,365.2,60.3,365.1,60.4L365.1,60.4L365.1,60.4z"/>
									<path class="st14" d="M364.7,58.8h-4.1c-0.1,0-0.2-0.1-0.2-0.2s0.1-0.2,0.2-0.2h4.1c0.1,0,0.2,0.1,0.2,0.2
										S364.8,58.8,364.7,58.8z"/>
								</g>
								<g>
									<path class="st4" d="M349.8,54.7h3.7c0.3,0,0.5,0.2,0.5,0.5l0,0c0,0.3-0.2,0.5-0.5,0.5h-3.7c-0.3,0-0.5-0.2-0.5-0.5l0,0
										C349.3,54.9,349.5,54.7,349.8,54.7z"/>
									<path class="st4" d="M348.8,48.3L348.8,48.3c0.3,0,0.5,0.2,0.5,0.5v5.5c0,0.3-0.2,0.5-0.5,0.5l0,0c-0.3,0-0.5-0.2-0.5-0.5
										v-5.5C348.4,48.5,348.6,48.3,348.8,48.3z"/>
									<path class="st4" d="M349.4,55.2c-0.2,0-0.4-0.1-0.5-0.2c-0.2-0.2-0.2-0.4-0.2-0.4h0.2h-0.1h0.1c0,0,0,0.4,0.5,0.4V55.2
										L349.4,55.2z"/>
									<path class="st4" d="M354.1,60.4c-0.1,0-0.1,0-0.2-0.1l-1.3-4.7c0-0.1,0-0.2,0.1-0.2s0.2,0,0.2,0.1l1.3,4.7
										C354.3,60.2,354.2,60.3,354.1,60.4L354.1,60.4L354.1,60.4z"/>
									<path class="st4" d="M349.1,60.4C349.1,60.4,349,60.4,349.1,60.4c-0.1,0-0.2-0.1-0.2-0.2l1.3-4.7c0-0.1,0.1-0.2,0.2-0.1
										c0.1,0,0.1,0.1,0.1,0.2l-1.3,4.7C349.2,60.3,349.2,60.4,349.1,60.4L349.1,60.4z"/>
									<path class="st14" d="M353.6,58.8h-4.1c-0.1,0-0.2-0.1-0.2-0.2s0.1-0.2,0.2-0.2h4.1c0.1,0,0.2,0.1,0.2,0.2
										S353.8,58.8,353.6,58.8z"/>
								</g>
							</g>
						</g>
					</g>
				</g>
			</g>
			<rect x="346.7" y="35.5" class="st15" width="41.5" height="22.5"/>
		</g>
		<g>
			<circle class="st16" cx="356.6" cy="41" r="1.2"/>
			<path class="st6" d="M356.6,41.6H353c-0.1,0-0.1-0.1-0.1-0.1l1.8-1.6l0.4-0.3c0.8-0.8,2.2-0.8,3.1,0l0.4,0.3l1.8,1.6
				c0,0,0,0.1-0.1,0.1H356.6L356.6,41.6z"/>
			<rect x="356.4" y="35.5" class="st6" width="0.4" height="5"/>
			<circle class="st16" cx="367.3" cy="41" r="1.2"/>
			<path class="st6" d="M367.3,41.6h-3.6c-0.1,0-0.1-0.1-0.1-0.1l1.8-1.6l0.4-0.3c0.8-0.8,2.2-0.8,3.1,0l0.4,0.3l1.8,1.6
				c0,0,0,0.1-0.1,0.1H367.3L367.3,41.6z"/>
			<rect x="367.1" y="35.5" class="st6" width="0.4" height="5"/>
			<circle class="st16" cx="378.1" cy="41" r="1.2"/>
			<path class="st6" d="M378.1,41.6h-3.6c-0.1,0-0.1-0.1-0.1-0.1l1.8-1.6l0.4-0.3c0.8-0.8,2.2-0.8,3.1,0l0.4,0.3l1.8,1.6
				c0,0,0,0.1-0.1,0.1H378.1L378.1,41.6z"/>
			<rect x="377.9" y="35.5" class="st6" width="0.4" height="5"/>
		</g>
		<polygon class="st4" points="390,60.3 344.9,60.3 344.9,58.9 372.1,58.9 390,58.9 		"/>
	</g>
	<g>
		<polygon class="st17" points="425.6,35 330.9,35 338.6,26 417.9,26 		"/>
		<g>
			<path class="st0" d="M339.9,35c0,1.2-1,2.2-2.2,2.2s-2.2-1-2.2-2.2H339.9L339.9,35z"/>
			<path class="st3" d="M335.4,35c0,1.2-1,2.2-2.2,2.2s-2.2-1-2.2-2.2H335.4L335.4,35z"/>
			<path class="st0" d="M348.9,35c0,1.2-1,2.2-2.2,2.2s-2.2-1-2.2-2.2H348.9L348.9,35z"/>
			<path class="st3" d="M344.4,35c0,1.2-1,2.2-2.2,2.2s-2.2-1-2.2-2.2H344.4L344.4,35z"/>
			<path class="st0" d="M358,35c0,1.2-1,2.2-2.2,2.2s-2.2-1-2.2-2.2H358L358,35z"/>
			<path class="st3" d="M353.5,35c0,1.2-1,2.2-2.2,2.2s-2.2-1-2.2-2.2H353.5L353.5,35z"/>
			<path class="st0" d="M367,35c0,1.2-1,2.2-2.2,2.2s-2.2-1-2.2-2.2H367L367,35z"/>
			<path class="st3" d="M362.5,35c0,1.2-1,2.2-2.2,2.2s-2.2-1-2.2-2.2H362.5L362.5,35z"/>
			<path class="st0" d="M376,35c0,1.2-1,2.2-2.2,2.2s-2.2-1-2.2-2.2H376L376,35z"/>
			<path class="st3" d="M371.5,35c0,1.2-1,2.2-2.2,2.2s-2.2-1-2.2-2.2H371.5L371.5,35z"/>
			<path class="st0" d="M385,35c0,1.2-1,2.2-2.2,2.2s-2.2-1-2.2-2.2H385L385,35z"/>
			<path class="st3" d="M380.5,35c0,1.2-1,2.2-2.2,2.2s-2.2-1-2.2-2.2H380.5L380.5,35z"/>
			<path class="st0" d="M394,35c0,1.2-1,2.2-2.2,2.2s-2.2-1-2.2-2.2H394L394,35z"/>
			<path class="st3" d="M389.5,35c0,1.2-1,2.2-2.2,2.2s-2.2-1-2.2-2.2H389.5L389.5,35z"/>
			<path class="st0" d="M403,35c0,1.2-1,2.2-2.2,2.2s-2.2-1-2.2-2.2H403L403,35z"/>
			<path class="st3" d="M398.5,35c0,1.2-1,2.2-2.2,2.2s-2.2-1-2.2-2.2H398.5L398.5,35z"/>
			<path class="st0" d="M412.1,35c0,1.2-1,2.2-2.2,2.2s-2.2-1-2.2-2.2H412.1L412.1,35z"/>
			<path class="st3" d="M407.5,35c0,1.2-1,2.2-2.2,2.2s-2.2-1-2.2-2.2H407.5L407.5,35z"/>
			<path class="st0" d="M421.1,35c0,1.2-1,2.2-2.2,2.2s-2.2-1-2.2-2.2H421.1L421.1,35z"/>
			<path class="st3" d="M416.6,35c0,1.2-1,2.2-2.2,2.2s-2.2-1-2.2-2.2H416.6L416.6,35z"/>
			<path class="st3" d="M425.6,35c0,1.2-1,2.2-2.2,2.2s-2.2-1-2.2-2.2H425.6L425.6,35z"/>
		</g>
		<polygon class="st4" points="335.4,35 342.5,26 336.6,26 330.9,35 		"/>
		<polygon class="st16" points="335.4,35 339.9,35 346.3,26 340.5,26 		"/>
		<polygon class="st4" points="350.2,26 344.4,35 339.9,35 344.4,26 		"/>
		<polygon class="st16" points="354.1,26 348.9,35 344.4,35 348.3,26 		"/>
		<polygon class="st4" points="356,26 353.5,35 348.9,35 352.1,26 		"/>
		<polygon class="st16" points="356,26 359.9,26 358,35 353.5,35 		"/>
		<polygon class="st4" points="359.9,26 363.7,26 362.5,35 358,35 		"/>
		<polygon class="st16" points="363.7,26 367.6,26 367,35 362.5,35 		"/>
		<polygon class="st4" points="367.6,26 373.4,26 371.5,35 367,35 		"/>
		<polygon class="st4" points="414,26 421.1,35 425.6,35 417.9,26 		"/>
		<polygon class="st16" points="410.2,26 416.6,35 421.1,35 414,26 		"/>
		<polygon class="st4" points="406.3,26 412.1,35 416.6,35 410.2,26 		"/>
		<polygon class="st16" points="402.4,26 407.5,35 412.1,35 406.3,26 		"/>
		<polygon class="st4" points="398.6,26 403,35 407.5,35 402.4,26 		"/>
		<polygon class="st16" points="398.5,35 394.7,26 398.6,26 403,35 		"/>
		<polygon class="st16" points="379.2,26 380.5,35 385,35 385,26 		"/>
		<polygon class="st16" points="377.3,26 376,35 371.5,35 371.5,26 		"/>
		<polygon class="st4" points="376,35 375.3,26 379.2,26 380.5,35 		"/>
		<polygon class="st4" points="385,35 389.5,35 388.9,26 383.1,26 		"/>
		<polygon class="st16" points="394,35 389.5,35 387,26 392.8,26 		"/>
		<polygon class="st4" points="394.7,26 390.8,26 394,35 398.5,35 		"/>
	</g>
	<g>
		<g>
			<rect x="403.5" y="38.7" class="st4" width="9.9" height="2.7"/>
			<g>
				<rect x="401.2" y="44.1" class="st0" width="14.4" height="27"/>
				<path class="st15" d="M401.2,71.2v-27h14.4v27"/>
			</g>
		</g>
		<rect x="411.1" y="55.8" class="st4" width="1.8" height="5.4"/>
		<g>
			<g>
				<circle class="st4" cx="407.9" cy="48.3" r="0.5"/>
				<line class="st18" x1="407.9" y1="48.3" x2="406.6" y2="51.5"/>
				<line class="st18" x1="407.9" y1="48.3" x2="410.1" y2="50.9"/>
			</g>
			
				<rect x="405.692" y="50.327" transform="matrix(0.9848 -0.1736 0.1736 0.9848 -2.7701 71.6826)" class="st4" width="5.4" height="2.7"/>
		</g>
	</g>
	<g>
		<g>
			<g>
				<path class="st6" d="M376,62.1h13.7c0.4,0,0.7,0.3,0.7,0.7l0,0c0,0.4-0.3,0.7-0.7,0.7H376c-0.4,0-0.7-0.3-0.7-0.7l0,0
					C375.3,62.4,375.6,62.1,376,62.1z"/>
				<rect x="382.1" y="62.4" class="st6" width="1.4" height="11.9"/>
				<path class="st6" d="M386.6,76.4h-7.5V76c0-0.1,0.1-0.2,0.2-0.3l2.4-1.8c0.4-0.3,0.8-0.4,1.2-0.4l0,0c0.4,0,0.9,0.2,1.2,0.4
					l2.4,1.8c0.1,0.1,0.2,0.2,0.2,0.3L386.6,76.4L386.6,76.4z"/>
			</g>
			<g>
				<path class="st6" d="M387.9,68.7h5.2c0.4,0,0.7,0.3,0.7,0.7l0,0c0,0.4-0.3,0.7-0.7,0.7h-5.2c-0.4,0-0.7-0.3-0.7-0.7l0,0
					C387.2,69,387.5,68.7,387.9,68.7z"/>
				<path class="st6" d="M394.4,59.7L394.4,59.7c0.4,0,0.7,0.3,0.7,0.7v7.8c0,0.4-0.3,0.7-0.7,0.7l0,0c-0.4,0-0.7-0.3-0.7-0.7v-7.8
					C393.8,60,394.1,59.7,394.4,59.7z"/>
				<path class="st6" d="M393.6,69.5v-0.3c0.6,0,0.7-0.5,0.7-0.5h0.3c0,0,0,0.3-0.2,0.5C394.2,69.4,393.9,69.5,393.6,69.5z"/>
				<path class="st6" d="M387.1,76.7C387.1,76.7,387,76.7,387.1,76.7c-0.2,0-0.3-0.2-0.2-0.3l1.9-6.7c0-0.1,0.2-0.2,0.3-0.2
					s0.2,0.2,0.2,0.3l-1.9,6.7C387.3,76.6,387.2,76.7,387.1,76.7L387.1,76.7z"/>
				<path class="st6" d="M394.1,76.7c-0.1,0-0.2-0.1-0.2-0.2l-1.9-6.7c0-0.1,0-0.3,0.2-0.3c0.1,0,0.3,0,0.3,0.2l1.9,6.7
					C394.4,76.5,394.3,76.7,394.1,76.7C394.2,76.7,394.1,76.7,394.1,76.7L394.1,76.7z"/>
				<path class="st6" d="M393.5,74.6h-5.8c-0.1,0-0.3-0.1-0.3-0.3s0.1-0.3,0.3-0.3h5.8c0.1,0,0.3,0.1,0.3,0.3S393.6,74.6,393.5,74.6
					z"/>
			</g>
			<g>
				<path class="st6" d="M372.6,68.7h5.2c0.4,0,0.7,0.3,0.7,0.7l0,0c0,0.4-0.3,0.7-0.7,0.7h-5.2c-0.4,0-0.7-0.3-0.7-0.7l0,0
					C371.9,69,372.2,68.7,372.6,68.7z"/>
				<path class="st6" d="M371.2,59.7L371.2,59.7c0.4,0,0.7,0.3,0.7,0.7v7.8c0,0.4-0.3,0.7-0.7,0.7l0,0c-0.4,0-0.7-0.3-0.7-0.7v-7.8
					C370.5,60,370.9,59.7,371.2,59.7z"/>
				<path class="st6" d="M372,69.5c-0.3,0-0.5-0.1-0.7-0.2c-0.2-0.2-0.2-0.5-0.2-0.5h0.3h-0.1h0.1c0,0.1,0,0.5,0.7,0.5v0.2H372z"/>
				<path class="st6" d="M378.6,76.7c-0.1,0-0.2-0.1-0.2-0.2l-1.9-6.7c0-0.1,0-0.3,0.2-0.3c0.1,0,0.3,0,0.3,0.2l1.9,6.7
					C378.9,76.5,378.8,76.7,378.6,76.7C378.7,76.7,378.6,76.7,378.6,76.7L378.6,76.7z"/>
				<path class="st6" d="M371.5,76.7L371.5,76.7c-0.2,0-0.3-0.2-0.2-0.3l1.9-6.7c0-0.1,0.2-0.2,0.3-0.2s0.2,0.2,0.2,0.3l-1.9,6.7
					C371.8,76.6,371.7,76.7,371.5,76.7L371.5,76.7z"/>
				<path class="st6" d="M378,74.6h-5.8c-0.1,0-0.3-0.1-0.3-0.3s0.1-0.3,0.3-0.3h5.8c0.1,0,0.3,0.1,0.3,0.3S378.1,74.6,378,74.6z"/>
			</g>
		</g>
		<g>
			<g>
				<path class="st6" d="M347.1,62.1h13.7c0.4,0,0.7,0.3,0.7,0.7l0,0c0,0.4-0.3,0.7-0.7,0.7h-13.7c-0.4,0-0.7-0.3-0.7-0.7l0,0
					C346.4,62.4,346.7,62.1,347.1,62.1z"/>
				<rect x="353.3" y="62.4" class="st6" width="1.4" height="11.9"/>
				<path class="st6" d="M357.7,76.4h-7.5V76c0-0.1,0.1-0.2,0.2-0.3l2.4-1.8c0.4-0.3,0.8-0.4,1.2-0.4l0,0c0.4,0,0.9,0.2,1.2,0.4
					l2.4,1.8c0.1,0.1,0.2,0.2,0.2,0.3L357.7,76.4L357.7,76.4z"/>
			</g>
			<g>
				<path class="st6" d="M359,68.7h5.2c0.4,0,0.7,0.3,0.7,0.7l0,0c0,0.4-0.3,0.7-0.7,0.7H359c-0.4,0-0.7-0.3-0.7-0.7l0,0
					C358.3,69,358.6,68.7,359,68.7z"/>
				<path class="st6" d="M365.6,59.7L365.6,59.7c0.4,0,0.7,0.3,0.7,0.7v7.8c0,0.4-0.3,0.7-0.7,0.7l0,0c-0.4,0-0.7-0.3-0.7-0.7v-7.8
					C364.9,60,365.2,59.7,365.6,59.7z"/>
				<path class="st6" d="M364.8,69.5v-0.3c0.6,0,0.7-0.5,0.7-0.5h0.3c0,0,0,0.3-0.2,0.5C365.3,69.4,365.1,69.5,364.8,69.5z"/>
				<path class="st6" d="M358.2,76.7L358.2,76.7c-0.2,0-0.3-0.2-0.2-0.3l1.9-6.7c0-0.1,0.2-0.2,0.3-0.2s0.2,0.2,0.2,0.3l-1.9,6.7
					C358.4,76.6,358.3,76.7,358.2,76.7L358.2,76.7z"/>
				<path class="st6" d="M365.2,76.7c-0.1,0-0.2-0.1-0.2-0.2l-1.9-6.7c0-0.1,0-0.3,0.2-0.3c0.1,0,0.3,0,0.3,0.2l1.9,6.7
					C365.5,76.5,365.5,76.7,365.2,76.7C365.3,76.7,365.3,76.7,365.2,76.7L365.2,76.7z"/>
				<path class="st6" d="M364.6,74.6h-5.8c-0.1,0-0.3-0.1-0.3-0.3s0.1-0.3,0.3-0.3h5.8c0.1,0,0.3,0.1,0.3,0.3S364.8,74.6,364.6,74.6
					z"/>
			</g>
			<g>
				<path class="st6" d="M343.7,68.7h5.2c0.4,0,0.7,0.3,0.7,0.7l0,0c0,0.4-0.3,0.7-0.7,0.7h-5.2c-0.4,0-0.7-0.3-0.7-0.7l0,0
					C343,69,343.4,68.7,343.7,68.7z"/>
				<path class="st6" d="M342.4,59.7L342.4,59.7c0.4,0,0.7,0.3,0.7,0.7v7.8c0,0.4-0.3,0.7-0.7,0.7l0,0c-0.4,0-0.7-0.3-0.7-0.7v-7.8
					C341.7,60,342,59.7,342.4,59.7z"/>
				<path class="st6" d="M343.2,69.5c-0.3,0-0.5-0.1-0.7-0.2c-0.2-0.2-0.2-0.5-0.2-0.5h0.3h-0.1h0.1c0,0.1,0,0.5,0.7,0.5v0.2H343.2z
					"/>
				<path class="st6" d="M349.7,76.7c-0.1,0-0.2-0.1-0.2-0.2l-1.9-6.7c0-0.1,0-0.3,0.2-0.3c0.1,0,0.3,0,0.3,0.2l1.9,6.7
					C350,76.5,349.9,76.7,349.7,76.7C349.8,76.7,349.8,76.7,349.7,76.7L349.7,76.7z"/>
				<path class="st6" d="M342.7,76.7L342.7,76.7c-0.2,0-0.3-0.2-0.2-0.3l1.9-6.7c0-0.1,0.2-0.2,0.3-0.2s0.2,0.2,0.2,0.3l-1.9,6.7
					C342.9,76.6,342.8,76.7,342.7,76.7L342.7,76.7z"/>
				<path class="st6" d="M349.1,74.6h-5.8c-0.1,0-0.3-0.1-0.3-0.3s0.1-0.3,0.3-0.3h5.8c0.1,0,0.3,0.1,0.3,0.3S349.3,74.6,349.1,74.6
					z"/>
			</g>
		</g>
	</g>
</g>
<rect id="_04_BG-4" x="0.1" y="0" class="st19" width="450.1" height="100"/>
<path class="st5" d="M450.1,100V87.3H439h-0.1h-4.6h-1.4h-4.6h-1.4h-4.6H421h-4.6H415h-4.6H409h-4.6H403h-4.6H397h-4.6H391h-4.6
	h-81.6h-3h-5.4h-0.3H292h-1h-3.9h-0.8h-5.1l0,0h-0.6h-0.1H278h-3.2H105.1l0,0c-6.2,0-11.2,5-11.2,11.2v1.5H450.1z"/>
<g>
	<g>
		<defs>
			<rect id="SVGID_00000080890906430803444840000014470861753424248507_" x="0.1" y="0" width="450.1" height="100"/>
		</defs>
		<clipPath id="SVGID_00000008855843901042571780000003708322213215758770_">
			<use xlink:href="#SVGID_00000080890906430803444840000014470861753424248507_"  style="overflow:visible;"/>
		</clipPath>
		<g style="clip-path:url(#SVGID_00000008855843901042571780000003708322213215758770_);">
			<g>
				<path class="st5" d="M483.9,16.2c-3.7,2.2-8.1,5.6-12.1,10.6c-3.6,4.5-5.4,8.6-8.9,16.7c-0.9,2.1-3.3,7.8-5.8,15.7
					c-0.8,2.7-1.7,5.7-4.5,17.4c-1.1,4.8-2.7,11.2-4.5,19c0.9,0.5,3,1.6,6,1.5c2.3-0.1,4-0.9,4.9-1.4c1.1-12.3,2.6-22.6,3.9-30.2
					c3.5-20.6,6.4-27.2,7.7-30C474.9,26.5,480.2,20.1,483.9,16.2L483.9,16.2z"/>
				<g>
					<path class="st5" d="M421-8.7c-4.8-0.4-8.4,2.2-12.2,4.8C405-1.2,398.2,3.6,395.1,13c-3.7,11.4,0.7,21.1,1.7,23.1
						c1.2-4.7,4.4-15,13.6-24.3c8.3-8.4,17.3-11.9,21.8-13.4C431.3-3,427.4-8.2,421-8.7L421-8.7z"/>
					<path class="st5" d="M427.6-0.4c3.8,3.4,8.2,8.2,11.7,14.8c3.2,6,4.3,11.1,6.6,21.3c0.6,2.7,2.1,9.7,3.2,19.4
						c0.4,3.3,0.7,7,1.5,21.1c0.3,5.8,0.7,13.6,1,22.9c-1.1,0.4-3.9,1.2-7.2,0.4c-2.6-0.6-4.5-1.9-5.4-2.7
						c1.4-14.5,1.9-26.7,2.1-35.8c0.4-24.6-1.5-32.9-2.4-36.4C435.8,13.5,431.1,5,427.6-0.4L427.6-0.4z"/>
					<path class="st5" d="M430.4-0.8c-0.2-1.5,6-4.1,11.8-4.8c3.8-0.5,10.3-1.3,15.5,2.4c5.9,4.2,8.3,12.9,6.2,21.7
						c-2.2-5-5.9-10.8-12.1-14.4C442-1.7,430.7,1.2,430.4-0.8L430.4-0.8z"/>
					<path class="st5" d="M428.1-1.2c-1.4,2.4,3.3,8.1,6.2,10.8c4,3.8,7.1,4.1,11.4,6.7c3.5,2.2,7.9,6,11.7,13.4
						c0.8-1.9,4.6-11,0.5-19.7C451.5-3.7,430.5-5.2,428.1-1.2L428.1-1.2z"/>
				</g>
				<path class="st5" d="M435.9,0.8c0.5,2.4-5.7,3.4-10,9.7c-6.2,9.4-1.9,21.3-4,21.8c-1.5,0.3-4.3-5-5.6-10.4
					c-0.5-2-4-17.2,4.2-22.6C426.1-4.3,435.2-2,435.9,0.8L435.9,0.8z"/>
			</g>
		</g>
	</g>
</g>
<rect id="_04_BG-6" x="0.1" y="0" class="st2" width="450.1" height="100"/>
<g id="Icon">
	<circle class="st21" cx="56.8" cy="50" r="35.9"/>
</g>
<g>
	<path class="st16" d="M35.299,52.246c0-3.885,0.556-7.03,1.666-9.436c1.111-2.406,2.749-4.18,4.913-5.323
		c2.165-1.143,4.834-1.714,8.008-1.714c1.13,0,2.45,0.108,3.961,0.324v5.884c-1.27-0.241-2.646-0.362-4.133-0.362
		c-2.514,0-4.386,0.552-5.617,1.657s-1.904,2.907-2.019,5.408h0.229c1.143-2.158,2.977-3.237,5.503-3.237
		c2.477,0,4.396,0.797,5.761,2.39c1.365,1.593,2.048,3.812,2.048,6.655c0,3.06-0.864,5.475-2.59,7.246
		c-1.728,1.771-4.14,2.656-7.236,2.656c-3.289,0-5.859-1.066-7.713-3.199S35.299,56.08,35.299,52.246z M45.62,58.436
		c0.8,0,1.45-0.302,1.952-0.905c0.501-0.603,0.752-1.564,0.752-2.885c0-2.26-0.876-3.39-2.628-3.39
		c-0.863,0-1.564,0.292-2.104,0.876c-0.539,0.584-0.81,1.295-0.81,2.133c0,1.219,0.261,2.219,0.781,2.999
		C44.084,58.045,44.77,58.436,45.62,58.436z"/>
	<path class="st16" d="M58.15,52.246c0-3.885,0.556-7.03,1.666-9.436c1.111-2.406,2.749-4.18,4.913-5.323
		c2.165-1.143,4.834-1.714,8.008-1.714c1.13,0,2.45,0.108,3.961,0.324v5.884c-1.27-0.241-2.646-0.362-4.133-0.362
		c-2.514,0-4.386,0.552-5.617,1.657s-1.904,2.907-2.019,5.408h0.229c1.143-2.158,2.977-3.237,5.503-3.237
		c2.477,0,4.396,0.797,5.761,2.39c1.365,1.593,2.048,3.812,2.048,6.655c0,3.06-0.864,5.475-2.59,7.246
		c-1.728,1.771-4.14,2.656-7.236,2.656c-3.289,0-5.859-1.066-7.713-3.199S58.15,56.08,58.15,52.246z M68.472,58.436
		c0.8,0,1.45-0.302,1.952-0.905c0.501-0.603,0.752-1.564,0.752-2.885c0-2.26-0.876-3.39-2.628-3.39
		c-0.863,0-1.564,0.292-2.104,0.876c-0.539,0.584-0.81,1.295-0.81,2.133c0,1.219,0.261,2.219,0.781,2.999
		C66.936,58.045,67.621,58.436,68.472,58.436z"/>
</g>
<g>
	<rect x="389.778" y="18.673" class="st21" width="2.971" height="37.92"/>
	<rect x="432.765" y="18.673" class="st21" width="2.971" height="37.92"/>
	<rect x="386.519" y="48.956" class="st4" width="52.432" height="39.477"/>
	<path class="st22" d="M433.78,20.576h-42.464c-3.764,0-6.815-3.051-6.815-6.815v0c0-3.764,3.051-6.815,6.815-6.815h42.464
		c3.764,0,6.815,3.051,6.815,6.815v0C440.595,17.525,437.544,20.576,433.78,20.576z"/>
	<rect x="387.806" y="10.44" class="st2" width="49.483" height="6.642"/>
	<text transform="matrix(1 0 0 1 388.7632 16.8897)" class="st16 st23 st24">COCKTAILS</text>
	<rect x="386.519" y="48.39" class="st6" width="4.605" height="40.044"/>
	<rect x="392.485" y="48.39" class="st6" width="4.605" height="40.044"/>
	<rect x="398.451" y="48.39" class="st6" width="4.605" height="40.044"/>
	<rect x="404.417" y="48.39" class="st6" width="4.605" height="40.044"/>
	<rect x="410.383" y="48.39" class="st6" width="4.605" height="40.044"/>
	<g>
		<g>
			<path class="st25" d="M423.202,48.923l-0.94-0.191c-0.042-0.009-0.074-0.053-0.075-0.105l-0.022-1.776
				c-0.003-0.24,0.05-0.476,0.152-0.681l0,0c0.009-0.019,0.024-0.032,0.042-0.038c0.52-0.176,0.899-0.768,0.891-1.45
				c-0.004-0.348-0.228-3.516-0.331-3.881c-0.01-0.035-0.038-0.059-0.068-0.059l-1.73,0.021c-0.031,0-0.058,0.025-0.067,0.061
				c-0.101,0.412-0.24,3.537-0.236,3.887c0.008,0.682,0.401,1.265,0.926,1.427c0.018,0.005,0.033,0.018,0.043,0.037l0,0
				c0.108,0.203,0.166,0.437,0.169,0.677l0.022,1.776c0.001,0.052-0.03,0.097-0.072,0.106l-0.935,0.214
				c-0.037,0.008-0.064,0.048-0.063,0.094l0,0c0.001,0.052,0.036,0.094,0.079,0.093l2.204-0.027
				c0.043-0.001,0.078-0.043,0.077-0.095v0C423.267,48.969,423.24,48.93,423.202,48.923z"/>
			<path class="st26" d="M423.043,43.253l-1.995,0.038c-0.056,0.349-0.086,1.257-0.084,1.427c0.004,0.346,0.12,0.673,0.326,0.919
				c0.206,0.247,0.476,0.381,0.76,0.378c0.284-0.004,0.551-0.144,0.751-0.397c0.199-0.252,0.307-0.581,0.302-0.927
				C423.102,44.552,423.046,43.269,423.043,43.253z"/>
		</g>
	</g>
	<g>
		<g>
			<path class="st25" d="M419.905,48.923l-0.94-0.191c-0.042-0.009-0.074-0.053-0.075-0.105l-0.022-1.776
				c-0.003-0.24,0.05-0.476,0.152-0.681l0,0c0.009-0.019,0.024-0.032,0.042-0.038c0.52-0.176,0.899-0.768,0.891-1.45
				c-0.004-0.348-0.228-3.516-0.331-3.881c-0.01-0.035-0.038-0.059-0.068-0.059l-1.73,0.021c-0.031,0-0.058,0.025-0.067,0.061
				c-0.101,0.412-0.24,3.537-0.236,3.887c0.008,0.682,0.401,1.265,0.926,1.427c0.018,0.005,0.033,0.018,0.043,0.037l0,0
				c0.108,0.203,0.166,0.437,0.169,0.677l0.022,1.776c0.001,0.052-0.03,0.097-0.072,0.106l-0.935,0.214
				c-0.037,0.008-0.064,0.048-0.063,0.094l0,0c0.001,0.052,0.036,0.094,0.079,0.093l2.204-0.027
				c0.043-0.001,0.078-0.043,0.077-0.095v0C419.969,48.969,419.942,48.93,419.905,48.923z"/>
			<path class="st26" d="M419.745,43.253l-1.995,0.038c-0.056,0.349-0.086,1.257-0.084,1.427c0.004,0.346,0.12,0.673,0.326,0.919
				c0.206,0.247,0.476,0.381,0.76,0.378c0.284-0.004,0.551-0.144,0.751-0.397c0.199-0.252,0.307-0.581,0.302-0.927
				C419.804,44.552,419.748,43.269,419.745,43.253z"/>
		</g>
	</g>
	<g>
		<path class="st22" d="M431.496,43.525c0,0.914-0.083,3.173-0.175,4.437h-4.819c-0.091-1.264-0.175-3.524-0.175-4.437
			c0-0.152,0.016-0.323,0.045-0.508h4.959h0.119C431.48,43.203,431.496,43.374,431.496,43.525z"/>
		<path class="st22" d="M428.312,36.021v-1.43c0-0.146-0.175-0.116-0.175-0.215v-0.419c0-0.233,0.052-0.402,0.21-0.402
			c0.157,0,0.565,0,0.565,0s0.407,0,0.565,0c0.157,0,0.21,0.169,0.21,0.402v0.419c0,0.099-0.175,0.07-0.175,0.215v1.43H428.312z"/>
		<g>
			<path class="st22" d="M426.372,43.018c0.182-1.164,0.873-2.88,1.305-3.835c0.501-1.106,0.634-2.567,0.634-2.73
				c0-0.048,0-0.216,0-0.432h1.199c0,0.217,0,0.384,0,0.432c0,0.163,0.134,1.624,0.634,2.73c0.432,0.954,1.124,2.671,1.305,3.835
				H426.372z"/>
			<path class="st22" d="M431.321,47.963c-0.019,0.266-0.039,0.488-0.058,0.644c-0.028,0.224-0.029,0.518-0.393,0.518
				c-0.745,0-1.959,0-1.959,0s-1.214,0-1.959,0c-0.364,0-0.365-0.294-0.393-0.518c-0.019-0.156-0.039-0.378-0.058-0.644H431.321z"/>
		</g>
		<circle class="st27" cx="428.506" cy="32.311" r="0.098"/>
		<circle class="st27" cx="429.483" cy="31.153" r="0.098"/>
		<circle class="st27" cx="429.41" cy="32.71" r="0.098"/>
		<circle class="st27" cx="428.917" cy="30.658" r="0.098"/>
		<circle class="st27" cx="428.872" cy="31.656" r="0.098"/>
		<circle class="st27" cx="428.858" cy="33.209" r="0.098"/>
		<path class="st22" d="M430.025,44.749c-0.27-0.309-0.741-0.305-1.027-0.01l-0.111,0.114c-0.007,0.008-0.019,0.008-0.027,0
			l-0.131-0.127c-0.272-0.264-0.707-0.257-0.97,0.015l0,0c-0.264,0.272-0.257,0.707,0.015,0.97l0.993,0.962
			c0.038,0.037,0.087,0.054,0.136,0.054c0.049-0.001,0.097-0.02,0.134-0.058L430,45.677
			C430.25,45.419,430.257,45.015,430.025,44.749z"/>
	</g>
	<rect x="416.349" y="48.39" class="st6" width="4.605" height="40.044"/>
	<rect x="422.315" y="48.39" class="st6" width="4.605" height="40.044"/>
	<rect x="428.281" y="48.39" class="st6" width="4.605" height="40.044"/>
	<rect x="434.247" y="48.39" class="st6" width="4.605" height="40.044"/>
</g>
<g>
	<path class="st28" d="M275.878,68.881c-1.567-0.101-4.137,5.025-3.254,9.158c0.166,0.777,0.609,2.248,1.108,3.901
		c0.828,2.746,0.889,2.609,0.975,3.264c0.366,2.779-0.89,3.892-0.047,5.164c0.531,0.801,1.496,1.038,2.633,1.272
		c1.613,0.332,3.523,0.193,3.626-0.311c0.085-0.414-1.154-0.587-2.139-1.876c-0.345-0.451-0.698-1.09-1.049-2.936
		c-0.46-2.423-0.425-4.35-0.419-4.572c0.136-5.763,1.281-6.979,0.406-9.981C277.471,71.116,276.872,68.945,275.878,68.881z"/>
	<path class="st28" d="M284.138,66.532c-1.123,0.009-2.165,3.554-2.413,6.355c-0.256,2.886,0.266,5.714,0.482,6.742
		c0.366,1.746,0.981,3.697,0.578,5.201c-0.045,0.167-0.234,0.82-0.193,1.686c0.02,0.422,0.048,1.014,0.327,1.504
		c0.503,0.882,1.626,1.095,2.633,1.272c1.83,0.321,4.209,0.22,4.311-0.368c0.075-0.427-1.141-0.576-2.36-1.926
		c-0.909-1.007-1.266-2.069-1.513-2.828c-0.549-1.69-0.454-3.128-0.419-4.572c0.136-5.763,1.281-6.979,0.406-9.981
		C285.876,69.264,285.128,66.524,284.138,66.532z"/>
	<path class="st29" d="M274.841,29.836c-0.937-0.534-2.312,0.002-3.071,0.599c-0.824,0.648-1.191,1.578-1.621,5.453
		c-0.449,4.044-0.659,6.073,0.058,6.435c0.904,0.456,2.626-1.076,3.509-2.13C276.583,36.771,276.828,30.968,274.841,29.836z"/>
	<g>
		<path class="st16" d="M281.977,86.922c0.684,0.25,1.964,1.517,2.649,1.765c1.18,0.427,2.141,0.564,3.421,0.504
			c0.181-0.008,2.356-0.388,2.304-0.522l0,0c0.143,0.016,0.135,0.466,0.138,0.55c0.009,0.289,0.018,0.519-0.324,0.624
			c-0.706,0.216-1.436,0.37-2.175,0.458c-0.608,0.073-1.266,0.041-1.892-0.105c-0.801-0.187-2.822-1.156-3.722-1.598
			c-0.27-0.133-0.437-0.411-0.428-0.711L281.977,86.922z"/>
		<path class="st4" d="M282.501,85.709c0.377-0.067,0.62,0.14,0.62,0.14c0.095,0.249,0.234,0.558,0.563,0.543
			c1.166-0.053,1.436-1.577,2.558-1.638c0.695-0.037,0.71,0.44,0.71,0.44c0.196,0.442,0.358,0.85,0.687,1.227
			c0.425,0.487,0.932,0.843,1.487,1.195c0.419,0.266,1.041,0.584,1.225,1.045c0.001,0.002,0.001,0.004,0.002,0.006
			c0.052,0.134-2.123,0.514-2.304,0.522c-1.281,0.06-2.241-0.077-3.421-0.504c-0.605-0.219-1.414-0.572-2.066-0.824
			c-0.162-0.063-0.43-0.208-0.475-0.376C281.945,86.953,281.868,85.823,282.501,85.709z"/>
	</g>
	<polygon class="st30" points="281.286,84.296 281.286,84.296 281.286,84.297 281.286,84.296 	"/>
	<g>
		<path class="st16" d="M273.545,89.912c0.607,0.553,1.498,1.212,2.68,1.658c0.689,0.26,1.278,0.372,1.577,0.42
			c0.578,0.092,1.167,0.116,1.844,0.084c0.181-0.008,2.356-0.388,2.304-0.522l0,0c0.143,0.016,0.135,0.466,0.138,0.55
			c0.009,0.289,0.018,0.519-0.324,0.624c-0.706,0.216-1.436,0.37-2.175,0.458c-0.512,0.061-1.098,0.028-1.892-0.105
			c-0.762-0.128-2.127-0.374-3.391-1.393c-0.227-0.183-0.416-0.363-0.567-0.522c-0.16-0.168-0.242-0.396-0.229-0.627L273.545,89.912
			z"/>
		<path class="st4" d="M274.138,88.135c0.143-0.105,0.292-0.148,0.394-0.167c-0.005,0.112,0.001,0.342,0.132,0.581
			c0.042,0.077,0.26,0.452,0.591,0.48c0.23,0.019,0.411-0.137,0.558-0.261c0.585-0.491,1.335-1.12,2.027-1.129
			c0.319-0.004,0.562,0.132,0.626,0.22c0.047,0.064,0.067,0.128,0.077,0.171c0.008,0.038,0.019,0.077,0.035,0.112
			c0.184,0.418,0.346,0.805,0.659,1.164c0.425,0.487,0.932,0.843,1.487,1.195c0.419,0.266,1.041,0.584,1.225,1.045
			c0.001,0.002,0.001,0.004,0.002,0.006c0.036,0.093-1.212,0.371-2.304,0.522c-0.767,0.106-1.151,0.159-1.688,0.125
			c-0.786-0.049-1.385-0.239-1.684-0.337c-0.575-0.187-0.992-0.402-1.277-0.55c-0.406-0.211-0.744-0.424-1.01-0.606
			c-0.047-0.032-0.099-0.086-0.159-0.158c-0.191-0.228-0.258-0.478-0.285-0.637c0.003-0.394,0.073-0.708,0.136-0.917
			C273.792,88.62,273.871,88.33,274.138,88.135z"/>
	</g>
	<path class="st31" d="M291.153,65.754c-0.852,0.891-0.653,2.284-0.356,4.175c0.905,5.758,1.231,7.366,1.44,8.917
		c0.596,4.421,1.001,7.53-0.804,9.31c-1.266,1.249-3.418,1.641-3.394,2.814c0.007,0.316,0.171,0.702,0.479,0.888
		c0.842,0.506,1.885-1.016,4.519-1.883c1.449-0.477,1.985-0.296,2.55-0.918c0.82-0.903,0.621-2.307,0.555-2.854
		c-0.499-4.175,1.297-4.813,1.106-12.027c-0.121-4.565-0.205-7.735-2.211-8.828C293.839,64.694,292.038,64.828,291.153,65.754z"/>
	<polygon class="st30" points="274.426,87.179 274.426,87.179 274.426,87.18 274.426,87.179 	"/>
	<path class="st31" d="M300.146,65.97c-0.892,0.637-1.057,1.988-0.768,4.963c0.481,4.947,1.385,5.818,1.961,9.983
		c0.569,4.112,0.853,6.169,0.178,8.735c-0.461,1.755-1.264,3.453-0.535,4.145c0.514,0.488,1.649,0.345,2.407-0.134
		c1.402-0.886,1.255-2.766,1.56-7.933c0.32-5.424,0.481-8.135,0.713-10.028c0.171-1.392,0.401-2.976,0.045-5.081
		c-0.273-1.608-0.614-3.459-2.139-4.412C302.636,65.626,301.108,65.283,300.146,65.97z"/>
	<path class="st31" d="M309.231,14.56l-1.011,1.218c0,0,0.413,2.683,2.146,2.931c1.734,0.248,2.704-1.218,2.704-1.218l-0.186-0.805
		L309.231,14.56z"/>
	<g>
		<defs>
			<path id="XMLID_00000152251107000053640200000013787436660354104195_" d="M292.079,86.234c0,0-0.531,0.625-1.507,1.507
				c-0.676,0.611-2.405,1.624-3.211,2.072c-0.604,0.335-1.11,0.515-1.136,0.523c-0.353,0.105-1.262,0.786-1.17,1.09
				c0.208,0.684,1.272,1.132,1.826,1.212c2.134,0.308,3.846-0.759,5.075-1.036c1.147-0.258,2.299-0.659,3.434-0.953
				c1.124-0.291,1.314-0.971,1.227-2.098c-0.085-1.102-0.169-2.034-0.169-2.034s-0.763,0.508-1.695,0.339
				C293.821,86.686,292.079,86.234,292.079,86.234z"/>
		</defs>
		<use xlink:href="#XMLID_00000152251107000053640200000013787436660354104195_"  style="overflow:visible;fill:#902082;"/>
		<clipPath id="XMLID_00000072279646984932858980000004500297642960218255_">
			<use xlink:href="#XMLID_00000152251107000053640200000013787436660354104195_"  style="overflow:visible;"/>
		</clipPath>
		<path style="clip-path:url(#XMLID_00000072279646984932858980000004500297642960218255_);fill:#FFFFFF;" d="M285.386,90.85
			c1.917,2.015,3.843,1.019,5.791,0.302c1.305-0.48,2.489-0.819,3.803-1.273c1.281-0.443,0.905-0.396,1.864-0.96
			c0.758-0.446,0.619,1.265-1.073,1.949c-1.375,0.556-2.913,0.941-4.318,1.419c-1.118,0.38-2.488,0.789-3.733,0.756
			c-2.119-0.057-3.051-1.467-3.051-1.467l0.509-0.656"/>
		<path style="clip-path:url(#XMLID_00000072279646984932858980000004500297642960218255_);fill:#BCBCBD;" d="M298.906,93.89
			c0,0,0.169,0.424,1.864,0.424s3.39-0.847,3.39-0.847l1.271-2.627l0.847-1.102c0,0,0.169,5.424-1.102,6.186
			c-1.271,0.763-5.085,1.017-6.017,0.339C298.228,95.584,298.906,93.89,298.906,93.89"/>
	</g>
	<path class="st34" d="M288.738,48.439l1.114,14.991c0.162,2.021,0.324,4.042,0.486,6.064c0.693,0.216,1.576,0.414,2.609,0.464
		c1.8,0.086,3.265-0.318,4.203-0.67c-0.103-1.491-0.138-3.177-0.038-5.019c0.073-1.356,0.21-2.612,0.38-3.757l1.276-7.119v-3.887
		c0-2.046-1.166-3.891-2.95-4.645C293.17,43.742,289.575,43.285,288.738,48.439z"/>
	<path class="st34" d="M295.92,49.298l1.114,10.566c0.425,3.175,0.85,6.351,1.275,9.527c0.579,0.408,1.662,1.046,3.14,1.237
		c2.265,0.291,3.99-0.66,4.59-1.031c-0.236-2.628-0.472-5.256-0.708-7.884l0.571-9.993c0.029-0.507,0.078-1.012,0.139-1.516
		c0.153-1.279,0.221-4.753-3.063-6.981C298.891,40.449,295.796,47.977,295.92,49.298z"/>
	<g>
		<defs>
			<path id="XMLID_00000039102224085983881090000001790403172729859723_" d="M301.285,89.041c0,0-0.586,2.049-0.659,2.269
				c-0.073,0.22-0.962,2.51-0.962,2.51s-0.169,0.843,0.669,1.149c1.04,0.381,2.822,0.199,3.66-0.439
				c0.537-0.409,1.025-0.878,1.025-2.123c0-1.244-0.073-0.976,0-1.83c0.046-0.54,0.112-1.235,0.154-1.674
				c0.017-0.176-0.173-0.295-0.325-0.205v0c0,0,0.244-0.61-0.634-0.683c-0.508-0.042-1.31-0.06-1.896-0.068
				c-0.434-0.006-0.816,0.284-0.928,0.704L301.285,89.041z"/>
		</defs>
		<use xlink:href="#XMLID_00000039102224085983881090000001790403172729859723_"  style="overflow:visible;fill:#902082;"/>
		<clipPath id="XMLID_00000108282191975308617420000000969661992178058140_">
			<use xlink:href="#XMLID_00000039102224085983881090000001790403172729859723_"  style="overflow:visible;"/>
		</clipPath>
		<path style="clip-path:url(#XMLID_00000108282191975308617420000000969661992178058140_);fill:#FFFFFF;" d="M299.748,92.92
			c0,0-0.143,1.186,0.662,1.406s1.746,0.195,2.624-0.024s1.837-1.089,1.983-1.894c0.146-0.805,0.732-2.489,0.732-2.489
			s0.512,2.708-0.146,3.66s-2.269,2.342-3.44,2.269c-1.171-0.073-2.562-0.146-2.854-0.878S299.748,92.92,299.748,92.92"/>
	</g>
	<g>
		<defs>
			<path id="XMLID_00000095339903530236630540000006666339471710555268_" d="M290.506,19.969c0.162,0.233,0.435,0.692,0.531,1.335
				c0.013,0.089,0.091,0.648-0.07,1.264c-0.37,1.407-1.723,2.088-1.95,2.198c0,0-0.681,0.619,0.093,1.455
				c0.774,0.836,4.489,1.517,7.089,0.062c2.598-1.453,4.299-5.841,4.087-6.314c-0.25-0.557-1.471-0.146-2.013-0.094
				c-0.714,0.068-0.634-0.235-1.31-0.596c-0.408-0.217-0.785-0.519-1.116-0.839c-0.278-0.268-0.501-0.516-0.906-0.573
				c-0.837-0.116-1.633,0.161-2.475,0.612C291.969,18.746,291.245,19.204,290.506,19.969z"/>
		</defs>
		<use xlink:href="#XMLID_00000095339903530236630540000006666339471710555268_"  style="overflow:visible;fill:#F1C09F;"/>
		<clipPath id="XMLID_00000090981282984402392030000017450658350129642896_">
			<use xlink:href="#XMLID_00000095339903530236630540000006666339471710555268_"  style="overflow:visible;"/>
		</clipPath>
		
			<ellipse style="opacity:0.1;clip-path:url(#XMLID_00000090981282984402392030000017450658350129642896_);fill:#222222;" cx="293.174" cy="18.308" rx="3.163" ry="3.856"/>
	</g>
	<path id="XMLID_00000010271556029696037980000011046485776742293392_" class="st5" d="M290.126,49.144
		c0.176,0.099,0.314,0.173,0.369,0.202c0.817,0.433,1.697,0.736,2.569,1.037c3.866,1.337,8.24-0.417,11.845-1.79
		c0.774-0.295,1.798-0.626,1.969-1.488c0.125-0.629,0.015-1.868-0.309-2.436c-0.248-0.433-0.622-2.256-0.622-2.256
		s0.003-1.211-0.059-3.069c-0.05-1.49-0.059-4.677-0.061-5.752c0-0.16,0-0.28,0-0.316c-0.004-1.675-0.394-4.725-1.917-10.685
		c-0.355,0.142-0.888,0.42-1.178,0.964c-0.753,1.41,0.841,3.268,0.371,3.653c-0.363,0.298-1.662-0.514-2.48-1.64
		c-0.326-0.448-0.55-1.043-0.616-1.889c-0.186-2.415,0.31-4.705,0.31-4.705l-2.507,0.464c-0.629,1.988-1.466,2.684-2.136,2.941
		c-0.406,0.156-0.724,0.14-1.162,0.474c0,0-0.405,0.309-1.222,1.848l-0.749-1.224c-0.367-0.6-1.023-0.966-1.726-0.957
		c-0.419,0.006-0.721,0.076-1.147,0.231c-0.859,0.312-2.077,0.753-2.521,1.896c-0.099,0.255-0.267,0.822-0.067,1.635
		c1.97,2.153,2.705,4.11,3.021,5.446c1.487,6.289-1.172,14.865-1.362,16.344C288.708,48.306,289.592,48.842,290.126,49.144z"/>
	<path class="st5" d="M287.162,24.649c-2.044,3.042-4.089,6.083-6.133,9.125c0,0-2.322,5.665,0.186,6.594
		c2.508,0.929,9.659-8.73,9.659-8.73c0.162-0.6,0.375-1.746,0-3.065C290.103,25.865,287.52,24.791,287.162,24.649z"/>
	<path class="st37" d="M293.072,25.075c0,0,0.583-2.188,0.645-2.405c0.196-0.686,0.689-0.511,1.522-1.465
		c0.085-0.098,1.06-0.899,0.984-1.906c-0.024-0.326-0.151-0.586-0.257-0.757c0.19-0.009,0.755-0.022,1.267,0.189
		c0.219,0.09,0.339,0.184,0.576,0.369c0.073,0.057,0.14,0.115,0.166,0.207c0.048,0.173-0.08,0.345-0.104,0.381
		c-0.172,0.252-0.708,1.781-1.59,4.523c-0.802-1.102-1.237-1.284-1.49-1.203c-0.242,0.077-0.286,0.386-0.573,0.86
		C293.867,24.444,293.424,24.827,293.072,25.075z"/>
	<path class="st29" d="M286.693,30.916c0.936-0.534,2.312,0.002,3.071,0.599c0.824,0.648,1.191,1.578,1.621,5.453
		c0.449,4.044,0.659,6.073-0.058,6.435c-0.904,0.456-2.626-1.076-3.509-2.13C284.951,37.851,284.706,32.048,286.693,30.916z"/>
	<g>
		<defs>
			<path id="XMLID_00000163073949149055213840000015807790284058641031_" d="M278.51,23.189c-0.153,0.341,0.012,0.581,0.127,1.157
				c0.022,0.113,0.43,2.278-0.549,3.192c-0.457,0.426-0.935,0.404-1.153,0.861c-0.147,0.308,0.049,0.64,0.099,0.748
				c0.992,2.138,2.636,9.243,4.196,8.996c1.453-0.23,3.306-6.91,4.021-7.176c0.03-0.011,0.219-0.076,0.369-0.251
				c0.137-0.16,0.165-0.373,0.186-0.574c0.116-1.124-0.642-1.793-1.654-2.365c-1.464-0.827,0.047-2.323-0.487-3.297
				c-0.662-1.208-2.177-2.616-3.805-2.223C279.354,22.379,278.715,22.733,278.51,23.189z"/>
		</defs>
		<use xlink:href="#XMLID_00000163073949149055213840000015807790284058641031_"  style="overflow:visible;fill:#F1C09F;"/>
		<clipPath id="XMLID_00000057828068451452215650000001001527638419213222_">
			<use xlink:href="#XMLID_00000163073949149055213840000015807790284058641031_"  style="overflow:visible;"/>
		</clipPath>
		<path style="opacity:0.1;clip-path:url(#XMLID_00000057828068451452215650000001001527638419213222_);fill:#222222;" d="
			M284.707,25.813c-0.236,0.272-0.483,1.987-2.155,2.266c-4.765,0.794-5.741-7.554-0.735-7.109c1.222,0.109,2.447,0.175,3.67,0.263
			C286.25,21.288,286.564,23.677,284.707,25.813z"/>
	</g>
	<g>
		<path class="st31" d="M295.356,13.555c0.161-0.048,0.401,0.11,0.516,0.269c0.295,0.405,0.366,1.093,0.391,1.634
			c0.024,0.523-0.116,0.954-0.511,0.999c-0.286,0.032-0.523-0.497-0.595-0.832C295.003,14.912,294.629,13.772,295.356,13.555z"/>
		<path class="st39" d="M295.607,14.157c-0.4-0.243-0.402,0.552-0.143,0.81c0.252,0.251,0.079,0.448,0.052,0.557
			c-0.066,0.264,0.087,0.348,0.087,0.348c0.286,0.051,0.042-0.567,0.148-0.824C295.85,14.805,295.778,14.261,295.607,14.157z"/>
	</g>
	<path class="st31" d="M290.11,11.255c-3.287,1.089-2.185,4.413-1.703,5.709c0.444,1.192,1.338,2.821,2.547,3.654
		c1.022,0.704,3.006,0.682,4.202-0.709c1.248-1.452,0.58-3.744,0.029-5.347C294.467,12.47,293.55,10.115,290.11,11.255z"/>
	<path class="st40" d="M292.132,11.077c0.225,0.157,0.532,0.23,0.762,0.343c0.457,0.224,0.814,0.499,1.186,0.94
		c0.792,0.939,0.77,2.168,0.915,2.149c0.115-0.015,0.039-0.773,0.344-0.879c0.071-0.025,0.229-0.038,0.366,0.043
		c0.052,0.031,0.088,0.067,0.111,0.095c-0.056-0.357-0.163-0.883-0.387-1.491c-0.289-0.784-0.447-1.454-1.062-1.836
		c-0.969-0.602-1.895-0.527-2.177-0.468c-0.32,0.067-0.417,0.519-0.314,0.79C291.928,10.899,292.02,10.999,292.132,11.077z"/>
	<path class="st41" d="M290.85,15.802c0.021,0.192-0.057,0.379-0.242,0.431c-0.184,0.052-0.375-0.056-0.426-0.242
		s0.069-0.438,0.249-0.502C290.617,15.423,290.81,15.442,290.85,15.802z"/>
	<path class="st41" d="M293.257,15.185c0.067,0.18,0.179,0.308,0.367,0.268c0.188-0.039,0.309-0.224,0.271-0.413
		c-0.038-0.189-0.119-0.364-0.309-0.337C293.391,14.731,293.131,14.846,293.257,15.185z"/>
	<path class="st42" d="M292.463,14.277c0.089,0.223,0.359,0.093,0.675-0.014c0.316-0.108,0.885-0.143,1.071-0.161
		c0.195-0.019,0.109-0.277-0.274-0.252C293.545,13.876,292.32,13.921,292.463,14.277z"/>
	<path class="st43" d="M292.712,17.263c-0.07,0.032-0.253,0.08-0.384,0.057c-0.115-0.021-0.207-0.091-0.247-0.053
		c-0.019,0.018-0.02,0.055-0.021,0.091c0,0-0.003,0.047,0.011,0.088c0.065,0.186,0.366,0.247,0.671,0.137
		c0.253-0.092,0.484-0.354,0.434-0.537c-0.012-0.045-0.049-0.114-0.106-0.125C292.952,16.898,292.972,17.145,292.712,17.263z"/>
	<path class="st41" d="M292.659,18.941c-0.406-0.003-0.632,0.26-0.024,0.265c0.472,0.004,0.886-0.158,1.109-0.402
		c0.089-0.097-0.076-0.214-0.201-0.137C293.234,18.86,293.03,18.944,292.659,18.941z"/>
	<path class="st42" d="M290.954,14.593c0.024,0.24-0.274,0.254-0.602,0.31s-0.847,0.297-1.019,0.37
		c-0.181,0.077-0.224-0.193,0.126-0.353C289.814,14.756,290.916,14.211,290.954,14.593z"/>
	<path class="st40" d="M290.426,12.277c-0.115,0.018-0.231,0.035-0.346,0.05c-0.456,0.06-1.035,0.053-1.34,0.462
		c-0.707,0.948-0.346,1.774-0.206,2.841c0.005,0.036,0.026,0.697,0.045,0.728c0.285,0.461-0.105,0.108-0.144,0.116
		c-0.57,0.116-0.645-0.337-0.844-0.802c-0.153-0.357-0.36-0.783-0.392-1.176c-0.025-0.309-0.356-1.662,0.154-2.367
		c0.51-0.705,0.412-1.175,1.26-1.626c0.917-0.489,1.555-1.09,2.649-0.902c0.892,0.153,1.5,0.796,1.355,1.76
		c-0.05,0.329-0.298,0.477-0.596,0.564C291.499,12.076,290.964,12.193,290.426,12.277z"/>
	<g>
		<path class="st31" d="M287.939,16.272c0.161-0.099,0.469-0.027,0.642,0.086c0.44,0.289,0.72,0.924,0.905,1.433
			c0.179,0.492,0.154,0.95-0.264,1.124c-0.302,0.126-0.715-0.301-0.893-0.598C287.953,17.687,287.21,16.721,287.939,16.272z"/>
		<path class="st39" d="M288.135,16.867c0.231-0.462,0.692,0.185,0.601,0.567c-0.089,0.371,0.185,0.418,0.274,0.489
			c0.214,0.172,0.121,0.341,0.121,0.341c-0.236,0.231-0.366-0.435-0.613-0.575C288.284,17.556,288.036,17.065,288.135,16.867z"/>
	</g>
	<path class="st37" d="M290.98,21.107c-0.2,0.123-0.57,0.394-0.762,0.871c-0.295,0.734-0.044,1.649,0.639,2.308
		c0.3-0.37,0.601-0.74,0.901-1.111c-0.007,0.217,0.02,0.514,0.218,0.731c0.212,0.232,0.424,0.158,0.684,0.404
		c0.334,0.316,0.34,0.775,0.412,0.763c0.049-0.008,0.073-0.228,0.055-0.468c-0.073-0.961-0.773-1.646-0.809-1.68
		c-0.442-0.421-0.668-0.35-0.933-0.762c-0.225-0.349-0.342-0.778-0.342-0.778C291.011,21.274,290.992,21.177,290.98,21.107z"/>
	<g>
		<path class="st31" d="M309.231,14.56c0,0,0.289-0.495,0.64-0.826c0.259-0.243,0.887-0.826,0.887-0.826s1.507-1.362,1.713-1.548
			c0.206-0.186,1.197-0.784,1.197-0.784l0.846-0.64c0,0,0.516-0.289,0.743,0c0.227,0.289,0.144,0.681,0.021,0.764
			c-0.124,0.083-1.424,1.197-1.424,1.197l-0.578,0.826l-0.66,0.867c0,0-0.743,0.929-1.796,1.011
			C309.768,14.684,309.293,14.828,309.231,14.56z"/>
		<path class="st31" d="M313.276,12.723c0,0,0.722-0.248,0.867,0.206c0.144,0.454,0.144,0.454,0.144,0.454s0.31,0.165,0.454,0.495
			c0.144,0.33,0.021,0.413,0.021,0.413s0.227,0.289,0.289,0.578c0.062,0.289,0.041,1.114,0.041,1.114s-0.289,0.66-0.475,0.764
			c-0.186,0.103-1.094,0.475-1.094,0.475l-1.341,0.33l1.527-1.63l-2.023-1.713L313.276,12.723z"/>
		<path class="st31" d="M311.419,15.654c0,0-0.289,0.392-0.186,0.702c0.103,0.31,0.454,0.351,0.619,0.289
			c0.165-0.062,2.33-1.774,2.332-1.775c0.275-0.218,0.621-0.485,0.601-0.865c-0.016-0.309-0.179-0.561-0.498-0.621
			C313.627,13.26,311.419,15.654,311.419,15.654z"/>
		<path class="st31" d="M309.054,15.898c0.02,0.059,0.045,0.118,0.075,0.175c0.274,0.524,0.705,0.96,1.207,1.269
			c0.755,0.464,1.483,0.619,2.299,0.211c0.413-0.206,0.413-0.206,0.413-0.206s-0.516,0.227-0.867,0.206
			c-0.351-0.021-0.433-0.268-0.392-0.392c0.041-0.124-0.227-0.021-0.351-0.144s-0.083-0.516-0.083-0.516
			c-0.024-0.017-0.058-0.046-0.087-0.091c-0.018-0.028-0.057-0.097-0.057-0.218c0,0,0.206-0.537,0.206-0.537h0.681
			c0,0,0.454-0.062,0.557-0.227c0.103-0.165,0.413-0.351,0.413-0.66s0.124-0.351-0.144-0.475c-0.268-0.124-0.248,0-0.454,0.041
			c-0.206,0.041-0.516-0.165-0.516-0.165s-0.413-0.083-0.413-0.083c-0.665,0.086-1.33,0.171-1.996,0.257
			C308.986,14.414,308.924,15.518,309.054,15.898z"/>
		<path class="st31" d="M311.607,16.118c0,0-0.368,0.319-0.335,0.644c0.033,0.325,0.366,0.442,0.541,0.418
			c0.175-0.024,2.663-1.219,2.665-1.22c0.316-0.152,0.712-0.337,0.776-0.712c0.052-0.305-0.052-0.587-0.349-0.715
			C314.287,14.266,311.607,16.118,311.607,16.118z"/>
		<path class="st31" d="M311.894,16.803c0,0-0.343,0.249-0.335,0.531c0.008,0.282,0.293,0.408,0.448,0.4
			c0.155-0.008,2.416-0.858,2.418-0.858c0.288-0.108,0.647-0.239,0.727-0.558c0.065-0.259-0.008-0.51-0.261-0.642
			C314.366,15.402,311.894,16.803,311.894,16.803z"/>
	</g>
	<path class="st22" d="M271.134,52.517c0.12,2.369,0.194,4.819,0.211,7.344c0.034,4.883-0.147,9.506-0.475,13.838
		c0.67,0.38,2.359,1.217,4.605,1.052c1.584-0.116,2.772-0.681,3.42-1.052c0.323-5.338,0.708-10.743,1.162-16.214
		c0.134-1.619,0.273-3.231,0.417-4.836C277.361,52.604,274.247,52.561,271.134,52.517z"/>
	<path class="st22" d="M279.463,49.96c-0.153,2.53-0.229,5.207-0.198,8.019c0.059,5.238,0.482,10.048,1.089,14.355
		c0.538,0.294,1.76,0.869,3.409,0.837c1.615-0.031,2.794-0.627,3.323-0.936c0.751-4.835,1.208-10.247,1.089-16.137
		c-0.031-1.526-0.099-3.012-0.198-4.455C285.139,51.082,282.301,50.521,279.463,49.96z"/>
	<g>
		<defs>
			<polygon id="SVGID_00000140733050282412547090000008520534674066282412_" points="270.47,33.486 275.227,34.646 280.796,34.414 
				286.132,34.762 291.701,34.646 297.502,32.906 295.646,53.789 291.121,52.745 287.06,52.977 281.492,54.369 277.547,54.717 
				273.951,53.209 			"/>
		</defs>
		<clipPath id="SVGID_00000036226942083938297340000013484559270444546181_">
			<use xlink:href="#SVGID_00000140733050282412547090000008520534674066282412_"  style="overflow:visible;"/>
		</clipPath>
	</g>
	<path class="st21" d="M289.942,55.161c-0.515-5.202-1.11-10.479-1.792-15.827c-0.178-1.396-0.36-2.785-0.547-4.167
		c0.391,0.057,1.041,0.099,1.792-0.116c1.175-0.335,1.875-1.088,2.143-1.41c0.006-0.092,0.047-0.848-0.508-1.289
		c-0.191-0.152-0.391-0.218-0.537-0.25c-0.069-0.217-0.176-0.538-0.323-0.922c-0.247-0.644-0.37-0.966-0.544-1.217
		c-0.165-0.237-0.591-0.73-1.629-0.963c-0.197-0.066-0.394-0.133-0.591-0.2c-0.994-0.338-1.977-0.682-2.948-1.032
		c-0.096,0.234-0.661,1.546-2.083,2.043c-0.983,0.343-1.837,0.108-2.206,0c-1.593-0.464-2.38-1.776-2.574-2.124
		c-1.881,0.98-2.97,1.34-3.64,1.473c-0.305,0.06-1.238,0.21-2.082,0.933c-0.007,0.006-0.063,0.054-0.121,0.107
		c-0.338,0.313-0.958,1.035-1.298,2.627c-0.133,0.05-0.471,0.197-0.727,0.559c-0.302,0.429-0.289,0.875-0.28,1.007
		c0.228,0.288,0.746,0.86,1.614,1.215c0.725,0.296,1.37,0.308,1.726,0.288c0.076,1.12,0.153,2.24,0.229,3.36
		c0.006,0.825-0.036,2.055-0.298,3.515c-0.437,2.438-1.132,3.551-1.7,5.641c-0.348,1.28-0.706,3.138-0.664,5.533
		c2.24,0.949,5.839,2.151,10.402,2.324C284.607,56.414,287.781,55.776,289.942,55.161z"/>
	<path class="st44" d="M284.822,17.437c-0.257-1.182-1.938-2.509-3.696-2.388c-1.043,0.072-1.791,0.632-2.131,0.928
		c-0.451,0.084-1.212,0.299-1.866,0.915c-1.383,1.303-1.153,3.336-1.092,3.767c0.183,1.278,0.875,2.272,2.179,4.146
		c0.21,0.303,0.391,0.546,0.511,0.705c0.007-0.237,0-0.507-0.037-0.803c-0.06-0.492-0.182-0.907-0.304-1.228
		C282.74,21.855,285.219,19.266,284.822,17.437z"/>
	<g>
		<defs>
			<polygon id="XMLID_00000142140218315878881400000001038641506969645495_" points="270.47,33.486 275.227,34.646 280.796,34.414 
				286.132,34.762 291.701,34.646 297.502,32.906 295.646,53.789 291.121,52.745 287.06,52.977 281.492,54.369 277.547,54.717 
				273.951,53.209 			"/>
		</defs>
		<use xlink:href="#XMLID_00000142140218315878881400000001038641506969645495_"  style="overflow:visible;fill:#E5EBEE;"/>
		<clipPath id="XMLID_00000059289942899631337370000002976932002769087131_">
			<use xlink:href="#XMLID_00000142140218315878881400000001038641506969645495_"  style="overflow:visible;"/>
		</clipPath>
		<g style="clip-path:url(#XMLID_00000059289942899631337370000002976932002769087131_);">
			<polygon class="st46" points="274.869,31.731 275.227,34.646 277.547,54.717 270.04,56.001 268.244,33.774 			"/>
			<polygon class="st46" points="283.165,33.867 280.796,34.414 281.492,54.369 285.116,54.763 287.06,52.977 286.132,34.762 			"/>
			<polygon class="st46" points="291.701,34.646 291.121,52.745 295.053,55.506 298.891,47.519 298.953,32.04 292.948,33.031 			"/>
		</g>
	</g>
	<path class="st31" d="M302.894,17.689c0.713-0.885,1.707-1.242,3.695-1.956c1.902-0.683,2.925-1.05,3.641-0.489
		c0.801,0.628,0.924,2.189,0.326,2.989c-0.361,0.483-0.767,0.397-1.684,1.032c-0.752,0.522-1.14,1.038-1.467,1.413
		c-0.94,1.077-3.492,3.409-4.673,2.88C301.58,23.042,301.328,19.633,302.894,17.689z"/>
	<g>
		<path class="st31" d="M296.568,44.617l-1.311,1.39c0,0-0.357,0.397-0.318,0.556c0.04,0.159,0.119,0.357,0.477,0.278
			c0.357-0.079,1.509-0.953,1.509-0.953l0.357-0.477C297.283,45.411,297.68,44.419,296.568,44.617z"/>
		<path class="st31" d="M297.442,45.509l-1.814,0.598c0,0-0.503,0.179-0.544,0.338s-0.065,0.371,0.287,0.472
			c0.635,0.18,1.503,0.037,2.139-0.08C298.331,46.684,298.066,45.715,297.442,45.509z"/>
		<path class="st31" d="M297.419,46.325l-2.347,0.495c-0.062,0.141-0.118,0.335,0.195,0.485c0.565,0.269,1.399,0.274,2.01,0.267
			C298.068,47.562,297.971,46.617,297.419,46.325z"/>
		<path class="st31" d="M296.647,48.628c0.311,0.099,0.613-0.272,0.58-0.568c-0.048-0.433-0.754-0.578-1.096-0.743
			c0,0-0.477,0.199-0.357,0.635C295.892,48.387,296.638,48.625,296.647,48.628z"/>
	</g>
	<path class="st31" d="M273.195,42.443c-0.06-0.298-0.089-0.387-0.358-0.506c-0.031-0.014-0.065-0.026-0.097-0.038
		c0.069-0.085,0.082-0.201,0.022-0.346c-0.071-0.174-0.244-0.374-0.402-0.48c-0.179-0.119-1.37-0.715-1.37-0.715
		s-1.311-0.238-1.608-0.179c-0.297,0.059-0.565,0.237-0.566,0.238c-0.274,0.182-0.423,0.64-0.154,0.832
		c0.022,0.016,0.046,0.029,0.071,0.042c-0.175,0.083-0.27,0.238-0.453,0.497c0,0-0.268,0.417,0.089,0.774
		c0,0,0.061,0.002,0.159,0.005c-0.053,0.197-0.079,0.492,0.139,0.709c0,0,0.091,0.068,0.259,0.149
		c0.08,0.113,0.37,0.523,0.396,0.626c0.03,0.119,0.03,0.328,0.268,0.417c0.238,0.089,0.506,0.06,0.626,0.089
		c0.119,0.03,0.03,0.268,0.447,0.119c0.417-0.149,1.221-0.626,1.37-0.715c0.149-0.089,0.357-0.119,0.417-0.357
		c0.04-0.16,0.011-0.332-0.102-0.438c0.039-0.065,0.018-0.244-0.023-0.44c0.131,0.013,0.262,0.027,0.393,0.044
		C272.719,42.77,273.255,42.741,273.195,42.443z"/>
	<path class="st31" d="M281.37,16.81c-0.888,0.053-1.526,0.327-1.982,0.726c-1.228,1.075-1.112,2.928-1.021,4.196
		c0.093,1.304,0.217,3.034,1.568,4.06c0.136,0.103,1.257,0.928,2.66,0.707c0.258-0.041,0.82-0.136,1.33-0.564
		c0.365-0.307,0.609-0.706,0.889-1.591c0.332-1.051,0.611-1.93,0.548-3.175C285.302,19.951,285.556,16.559,281.37,16.81z"/>
	<path class="st41" d="M281.648,21.422c-0.01,0.187-0.115,0.353-0.301,0.372c-0.186,0.02-0.353-0.115-0.372-0.301
		c-0.02-0.186,0.135-0.407,0.32-0.439C281.483,21.022,281.667,21.072,281.648,21.422z"/>
	<path class="st41" d="M283.953,21.283c0.049,0.181,0.146,0.314,0.332,0.294c0.186-0.02,0.321-0.186,0.301-0.372
		c-0.02-0.186-0.083-0.362-0.269-0.355C284.125,20.858,283.862,20.944,283.953,21.283z"/>
	<path class="st44" d="M283.258,20.199c0.067,0.224,0.341,0.125,0.657,0.052s0.874-0.052,1.056-0.051
		c0.191,0.001,0.132-0.257-0.243-0.269C284.347,19.918,283.152,19.843,283.258,20.199z"/>
	<path class="st43" d="M283.11,23.33c-0.073,0.019-0.256,0.035-0.379-0.009c-0.108-0.039-0.185-0.121-0.229-0.091
		c-0.021,0.014-0.028,0.049-0.035,0.084c0,0-0.01,0.044-0.003,0.086c0.034,0.188,0.313,0.296,0.625,0.241
		c0.258-0.046,0.522-0.258,0.503-0.442c-0.005-0.045-0.029-0.116-0.083-0.137C283.399,23.021,283.379,23.26,283.11,23.33z"/>
	<path class="st41" d="M282.772,24.554c-0.39-0.07-0.65,0.145-0.065,0.249c0.454,0.081,0.879-0.006,1.132-0.202
		c0.101-0.078-0.039-0.217-0.172-0.163C283.339,24.571,283.129,24.617,282.772,24.554z"/>
	<g>
		<path class="st31" d="M277.839,20.964c0.177-0.052,0.45,0.091,0.586,0.24c0.345,0.381,0.455,1.044,0.507,1.567
			c0.05,0.505-0.086,0.928-0.524,0.987c-0.317,0.043-0.603-0.46-0.698-0.782C277.508,22.292,277.041,21.203,277.839,20.964z"/>
		<path class="st39" d="M277.88,21.569c0.331-0.375,0.609,0.345,0.43,0.68c-0.175,0.325,0.073,0.437,0.14,0.526
			c0.161,0.214,0.031,0.35,0.031,0.35c-0.279,0.158-0.24-0.498-0.44-0.691C277.853,22.252,277.738,21.73,277.88,21.569z"/>
	</g>
	<path class="st5" d="M304.494,27.593c0.536-0.697-0.109-1.605,0.462-3.365c0.29-0.895,0.747-1.555,1.088-1.972
		c-0.143-0.025-1.826-0.349-2.499-1.874c-0.582-1.318-0.159-2.967,1.082-3.98c-0.96,0.308-2.065,0.738-3.245,1.342
		c-1.005,0.515-1.871,1.06-2.6,1.574c-1.949,2.39-1.827,5.627-0.073,7.396C300.428,28.447,303.643,28.698,304.494,27.593z"/>
	<path class="st44" d="M281.908,20.297c-0.015,0.233-0.304,0.198-0.629,0.197s-0.863,0.145-1.04,0.186
		c-0.186,0.044-0.186-0.221,0.177-0.317C280.784,20.265,281.932,19.925,281.908,20.297z"/>
	<path class="st44" d="M280.586,17.691c0.056,0.374,0.535,0.579,1.412,0.953c0.669,0.286,1.233,0.527,2.006,0.514
		c1.174-0.019,2.114-0.612,2.082-0.734c-0.015-0.057-0.242-0.015-0.694-0.167c-0.211-0.071-0.282-0.12-0.277-0.141
		c0.007-0.031,0.168,0.024,0.318-0.058c0.115-0.063,0.218-0.199,0.188-0.289c-0.032-0.094-0.192-0.083-0.375-0.145
		c-0.303-0.101-0.457-0.329-0.568-0.452c-0.315-0.35-1.292-0.975-2.19-0.934C281.521,16.283,280.499,17.103,280.586,17.691z"/>
	<path class="st44" d="M282.035,16.167c-0.061-0.219-0.954-0.141-1.604,0.028c-0.462,0.12-1.039,0.27-1.557,0.762
		c-0.669,0.635-0.809,1.438-0.891,1.906c-0.257,1.476,0.314,2.691,0.584,3.184c0.057-0.454,0.169-1.018,0.395-1.639
		c0.299-0.822,0.692-1.454,1.015-1.893c0.108,0.192,0.308,0.475,0.65,0.675c0.686,0.401,1.551,0.234,1.576,0.075
		c0.026-0.167-0.891-0.169-1.2-0.8c-0.233-0.474-0.026-1.107,0.217-1.483C281.575,16.43,282.078,16.322,282.035,16.167z"/>
</g>
</svg>
