<?xml version="1.0" encoding="UTF-8"?><svg id="Layer_1" xmlns="http://www.w3.org/2000/svg" viewBox="0 0 64 64"><defs><style>.cls-1{fill:#f7c3db;}.cls-2{fill:#003c57;}.cls-3{fill:#e95195;}.cls-4{fill:#fff;}.cls-5{fill:#99b1bc;}.cls-6{fill:#4d778a;}</style></defs><rect class="cls-4" width="64" height="64"/><path class="cls-1" d="m57.87,32.69h6.07v-7.52h-5.48c-2.65,0-4.8,2.15-4.8,4.8,0-2.65-2.15-4.8-4.8-4.8h-10.8c-.66,0-1.2.54-1.2,1.2v21.59c0,.66.54,1.2,1.2,1.2h10.8c1.59,0,2.98.79,3.87,1.97.38.5,1.15.57,1.63.21.08-.05.16-.13.22-.21.89-1.19,2.29-1.97,3.88-1.97h5.48v-6.27h-6.07c-.5,0-.9-.41-.9-.91s.4-.89.9-.89h6.07v-2.4h-6.07c-.5,0-.9-.41-.9-.9s.4-.9.9-.9h6.07v-2.4h-6.07c-.5,0-.9-.41-.9-.9s.4-.9.9-.9Zm-17.54.9c0-.5.4-.9.9-.9h8.4c.49,0,.9.4.9.9s-.41.9-.9.9h-8.4c-.16,0-.3-.04-.43-.12-.28-.14-.47-.44-.47-.78Zm10.2,4.2c0,.49-.41.9-.9.9h-8.4c-.5,0-.9-.41-.9-.9s.4-.9.9-.9h8.4c.49,0,.9.4.9.9Zm-9.3,5.1c-.29,0-.55-.14-.72-.36-.11-.15-.18-.34-.18-.55,0-.49.4-.89.9-.89h8.4c.49,0,.9.4.9.89s-.41.91-.9.91h-8.4Z"/><path class="cls-2" d="m58.53,63.98H5.47c.14-12.09,9.98-21.84,22.1-21.84h8.85c.15,0,.29,0,.44.01,1.25.02,2.47.15,3.65.38.55.09,1.08.21,1.61.36,3.82,1.01,7.23,3.02,9.94,5.73.84.84,1.62,1.75,2.3,2.72,2.58,3.56,4.12,7.92,4.17,12.64Z"/><circle class="cls-2" cx="32" cy="24.45" r="13.27"/><path class="cls-6" d="m27.49,11.13h9.01c4.81,0,8.71,3.9,8.71,8.71v.26h-26.44v-.26c0-4.81,3.9-8.71,8.71-8.71Z"/><path class="cls-3" d="m17.83,30.49l-1.45-5.8c.4-.29.66-.75.66-1.28,0-.58-.32-1.08-.79-1.36v-10.45h-1.57v10.45c-.47.27-.79.77-.79,1.36,0,.53.26,1,.66,1.28l-1.45,5.8h4.72Z"/><path class="cls-5" d="m53.8,10.45l-20.77-7.16c-.67-.23-1.39-.23-2.05,0l-20.77,7.16c-.35.12-.36.61-.01.74l20.69,7.85c.72.27,1.51.27,2.23,0l20.69-7.85c.34-.13.34-.62-.01-.74Z"/></svg>